<?xml version="1.0" encoding="UTF-8"?>
<svg version="1.1" xmlns="http://www.w3.org/2000/svg" width="104" height="104">
<path d="M0 0 C12.90260465 8.29895531 21.41876547 20.04190278 24.75 35.1875 C26.25575612 53.04888294 22.9105743 67.23062988 11.5625 81.375 C4.05283268 89.56285313 -8.09781553 96.41594956 -19.34960938 97.36450195 C-37.38682217 97.85703246 -51.66079256 94.80126299 -65.37109375 82.2265625 C-77.34553024 69.23143599 -80.05716863 54.54990459 -79.42919922 37.61035156 C-78.53461978 25.5152475 -71.05393337 13.29993669 -62.25 5.1875 C-43.60477089 -8.83944929 -20.59459356 -11.60390241 0 0 Z " fill="#878787" transform="translate(79.25,6.8125)"/>
<path d="M0 0 C0 1.65 0 3.3 0 5 C-2.78871177 6.33957921 -5.58143062 7.67058435 -8.375 9 C-9.1690625 9.3815625 -9.963125 9.763125 -10.78125 10.15625 C-11.54179688 10.5171875 -12.30234375 10.878125 -13.0859375 11.25 C-13.7876709 11.58515625 -14.4894043 11.9203125 -15.21240234 12.265625 C-17 13 -17 13 -19 13 C-19 13.66 -19 14.32 -19 15 C-18.15179688 15.26554687 -17.30359375 15.53109375 -16.4296875 15.8046875 C-12.87259054 17.04440466 -9.53406601 18.52482616 -6.125 20.125 C-4.97257812 20.66382812 -3.82015625 21.20265625 -2.6328125 21.7578125 C-1.76398437 22.16773437 -0.89515625 22.57765625 0 23 C0 24.98 0 26.96 0 29 C-8.66666667 24.66666667 -17.33333333 20.33333333 -26 16 C-26 14.68 -26 13.36 -26 12 C-22.04490505 9.99354751 -18.08540979 7.99593864 -14.125 6 C-12.99707031 5.42765625 -11.86914062 4.8553125 -10.70703125 4.265625 C-9.63066406 3.72421875 -8.55429687 3.1828125 -7.4453125 2.625 C-6.45031738 2.12226562 -5.45532227 1.61953125 -4.43017578 1.1015625 C-2 0 -2 0 0 0 Z " fill="#F7F7F7" transform="translate(61,38)"/>
</svg>
