<svg width="24" height="26" viewBox="0 0 24 26" fill="none" xmlns="http://www.w3.org/2000/svg">
    <path
        d="M8.36802 16.7048C8.36802 13.9964 8.3621 11.2877 8.37582 8.579C8.37744 8.2211 8.30315 8.08894 7.90557 8.059C5.5944 7.88531 3.29561 7.6094 1.02562 7.12608C0.231546 6.95724 -0.0963141 6.58666 0.0242781 5.92479C0.14487 5.26293 0.670308 4.92929 1.43128 5.08869C5.6092 5.96498 9.83854 6.16268 14.0921 6.044C16.9134 5.96525 19.7126 5.68259 22.4776 5.10595C23.2044 4.95438 23.6692 5.13535 23.8972 5.64375C24.1836 6.28243 23.8525 6.9478 23.1357 7.10019C21.4216 7.46349 19.6883 7.71243 17.9454 7.89421C17.2776 7.9638 16.6089 8.03068 15.9392 8.0768C15.7045 8.09272 15.6305 8.17768 15.6367 8.40046C15.6488 8.85438 15.6399 9.30884 15.6399 9.76303C15.6399 14.6935 15.6399 19.6241 15.6399 24.555C15.6399 24.7333 15.6501 24.9137 15.6278 25.0895C15.5621 25.612 15.1451 25.9888 14.6385 25.9995C14.1363 26.0103 13.7023 25.6489 13.614 25.1292C13.5871 24.9706 13.5928 24.8055 13.5928 24.6437C13.5928 22.681 13.5836 20.7184 13.5968 18.756C13.6009 18.1556 13.4622 17.6151 12.8612 17.402C12.1882 17.1628 11.4725 17.1115 10.8485 17.5841C10.4961 17.8513 10.414 18.2451 10.4154 18.6721C10.4222 20.7156 10.4222 22.7592 10.4154 24.8028C10.4124 25.7099 9.78686 26.1878 8.9734 25.9283C8.41836 25.7511 8.37609 25.2872 8.37259 24.8298C8.36075 23.273 8.36802 21.7157 8.36802 20.1587V16.7048Z"
        fill="url(#paint0_linear_206_360)" />
    <path
        d="M12.0095 4.88614C10.5982 4.87373 9.52634 3.80244 9.53818 2.41668C9.54976 1.07649 10.6687 -0.0107088 12.0262 7.96022e-05C13.3837 0.010868 14.4757 1.10939 14.4695 2.45929C14.4634 3.80919 13.3568 4.89801 12.0095 4.88614Z"
        fill="url(#paint1_linear_206_360)" />
    <defs>
        <linearGradient id="paint0_linear_206_360" x1="0" y1="15.5245" x2="24" y2="15.5245"
            gradientUnits="userSpaceOnUse">
            <stop stop-color="#B579FF" />
            <stop offset="1" stop-color="#A95BFF" />
        </linearGradient>
        <linearGradient id="paint1_linear_206_360" x1="9.53809" y1="2.44312" x2="14.4696"
            y2="2.44312" gradientUnits="userSpaceOnUse">
            <stop stop-color="#B579FF" />
            <stop offset="1" stop-color="#A95BFF" />
        </linearGradient>
    </defs>
</svg>
