<svg width="16" height="25" viewBox="0 0 16 25" fill="none" xmlns="http://www.w3.org/2000/svg">
    <path
        d="M6.93333 16.2325C3.01935 15.7011 0 12.286 0 8.15217C0 3.64985 3.58172 0 8 0C12.4182 0 16 3.64985 16 8.15217C16 12.286 12.9807 15.7011 9.06667 16.2325V18.4783H14.4V20.6522H9.06667V25H6.93333V20.6522H1.6V18.4783H6.93333V16.2325ZM8 14.1304C11.2401 14.1304 13.8667 11.4539 13.8667 8.15217C13.8667 4.85047 11.2401 2.17391 8 2.17391C4.75993 2.17391 2.13333 4.85047 2.13333 8.15217C2.13333 11.4539 4.75993 14.1304 8 14.1304Z"
        fill="url(#paint0_linear_206_364)" />
    <defs>
        <linearGradient id="paint0_linear_206_364" x1="0" y1="12.5" x2="16" y2="12.5"
            gradientUnits="userSpaceOnUse">
            <stop stop-color="#B579FF" />
            <stop offset="1" stop-color="#A95BFF" />
        </linearGradient>
    </defs>
</svg>
