<svg width="20" height="25" viewBox="0 0 20 25" fill="none" xmlns="http://www.w3.org/2000/svg">
    <path
        d="M9.99999 0L2.92893 7.32234C-0.97631 11.3663 -0.97631 17.923 2.92893 21.967C6.83417 26.011 13.1658 26.011 17.0711 21.967C20.9763 17.923 20.9763 11.3663 17.0711 7.32234L9.99999 0ZM14.7141 11.3936L6.85734 19.5296L5.28599 17.9023L13.1428 9.76641L14.7141 11.3936ZM5.67883 10.1732C6.3297 9.4992 7.38497 9.4992 8.03588 10.1732C8.68677 10.8472 8.68677 11.94 8.03588 12.6139C7.38497 13.2879 6.3297 13.2879 5.67883 12.6139C5.02795 11.94 5.02795 10.8472 5.67883 10.1732ZM14.3212 19.1227C13.6703 19.7967 12.6151 19.7967 11.9642 19.1227C11.3133 18.4487 11.3133 17.356 11.9642 16.682C12.6151 16.008 13.6703 16.008 14.3212 16.682C14.9721 17.356 14.9721 18.4487 14.3212 19.1227Z"
        fill="url(#paint0_linear_206_356)" />
    <defs>
        <linearGradient id="paint0_linear_206_356" x1="0" y1="12.5" x2="20" y2="12.5"
            gradientUnits="userSpaceOnUse">
            <stop stop-color="#B579FF" />
            <stop offset="1" stop-color="#A95BFF" />
        </linearGradient>
    </defs>
</svg>
