<svg width="24" height="24" viewBox="0 0 24 24" fill="none" xmlns="http://www.w3.org/2000/svg">
    <path
        d="M12 24C5.37258 24 0 18.6274 0 12C0 5.37258 5.37258 0 12 0C18.6274 0 24 5.37258 24 12C24 18.6274 18.6274 24 12 24ZM7.2 13.2C7.2 15.8509 9.34903 18 12 18C14.6509 18 16.8 15.8509 16.8 13.2H7.2ZM7.2 10.8C8.19412 10.8 9 9.99408 9 9C9 8.00588 8.19412 7.2 7.2 7.2C6.20588 7.2 5.4 8.00588 5.4 9C5.4 9.99408 6.20588 10.8 7.2 10.8ZM16.8 10.8C17.7941 10.8 18.6 9.99408 18.6 9C18.6 8.00588 17.7941 7.2 16.8 7.2C15.8059 7.2 15 8.00588 15 9C15 9.99408 15.8059 10.8 16.8 10.8Z"
        fill="url(#paint0_linear_206_363)" />
    <defs>
        <linearGradient id="paint0_linear_206_363" x1="0" y1="12" x2="24" y2="12"
            gradientUnits="userSpaceOnUse">
            <stop stop-color="#B579FF" />
            <stop offset="1" stop-color="#A95BFF" />
        </linearGradient>
    </defs>
</svg>
