<svg width="24" height="27" viewBox="0 0 24 27" fill="none" xmlns="http://www.w3.org/2000/svg">
    <path
        d="M0.654506 21.6866H7.85407V23.347C7.85407 25.3644 6.24239 27 4.25429 27C2.26619 27 0.654506 25.3644 0.654506 23.347V21.6866ZM5.89055 5.90662C8.50857 5.90662 9.81758 9.73145 9.81758 12.3882C9.81758 13.7165 9.16308 15.0449 8.50857 17.0374L7.85407 19.0299H0.654506C0.654506 17.7016 0 15.7091 0 12.3882C0 9.06728 2.61518 5.90662 5.89055 5.90662ZM21.6694 16.5038L21.3852 18.139C21.04 20.1258 19.1728 21.4524 17.2149 21.1021C15.2571 20.7519 13.9497 18.8571 14.2951 16.8703L14.5791 15.2351L21.6694 16.5038ZM19.2131 0.0409285C22.4387 0.618095 24.4733 4.19156 23.905 7.46197C23.3368 10.7324 22.3512 12.5793 22.124 13.8875L15.0337 12.6188L14.7302 10.5412C14.4265 8.46365 14.0093 7.04014 14.2365 5.73199C14.6912 3.11565 16.6348 -0.420393 19.2131 0.0409285Z"
        fill="url(#paint0_linear_206_353)" />
    <defs>
        <linearGradient id="paint0_linear_206_353" x1="0" y1="13.5" x2="24" y2="13.5"
            gradientUnits="userSpaceOnUse">
            <stop stop-color="#B579FF" />
            <stop offset="1" stop-color="#A95BFF" />
        </linearGradient>
    </defs>
</svg>
