<svg width="20" height="20" viewBox="0 0 20 20" fill="none" xmlns="http://www.w3.org/2000/svg">
<path d="M19.799 5.65685L18.3848 7.07106L16.2635 4.94974L14.1421 7.07106L17.6777 10.6066L16.2635 12.0208L15.5564 11.3137L9.19239 17.6777H3.53553L1.41421 19.799L0 18.3848L2.12132 16.2635V10.6066L8.48529 4.24264L7.77817 3.53553L9.19239 2.12132L12.7279 5.65685L14.8492 3.53553L12.7279 1.41421L14.1421 0L19.799 5.65685ZM14.1421 9.89947L9.89949 5.65685L8.48529 7.07106L10.6066 9.19237L9.19239 10.6066L7.07106 8.48527L5.65685 9.89947L7.77817 12.0208L6.36396 13.4351L4.24264 11.3137L4.12132 11.4351V15.6777H8.36399L14.1421 9.89947Z" fill="#878787"/>
</svg>
