<svg width="13" height="20" viewBox="0 0 13 20" fill="none" xmlns="http://www.w3.org/2000/svg">
<path d="M10.2468 5.19806C9.84268 5.19806 9.51393 4.86927 9.51393 4.46517V3.88512C9.9201 3.86415 10.2432 3.52915 10.2432 3.11782V0.769377C10.2432 0.344454 9.89873 0 9.47385 0H3.35758C2.9327 0 2.58821 0.344454 2.58821 0.769377V3.11782C2.58821 3.52923 2.91133 3.86423 3.31751 3.88512V4.46513C3.31751 4.86927 2.98872 5.19802 2.58461 5.19802C1.15942 5.19802 0 6.35751 0 7.78263C0 8.38345 0 18.8789 0 19.2306C0 19.6555 0.344454 20 0.769377 20H12.062C12.4869 20 12.8314 19.6555 12.8314 19.2306C12.8314 18.8838 12.8314 8.36408 12.8314 7.78263C12.8314 6.35751 11.6719 5.19806 10.2468 5.19806ZM8.70447 1.53875V2.34844H4.12696V1.53875H8.70447ZM11.2927 18.4613H1.53879V10.0993H11.2927V18.4613ZM11.2927 8.56064H1.53879V7.78267C1.53879 7.20599 2.00793 6.73677 2.58469 6.73677C3.83727 6.73677 4.85634 5.71771 4.85634 4.46513V3.88716H7.97521V4.46517C7.97521 5.71775 8.99428 6.73681 10.2469 6.73681C10.8235 6.73681 11.2927 7.20599 11.2927 7.78271V8.56064Z" fill="#878787"/>
<path d="M4.49203 15.0499H5.64481V16.2026C5.64481 16.6275 5.98926 16.972 6.41419 16.972C6.83907 16.972 7.18356 16.6276 7.18356 16.2026V15.0499H8.33634C8.76122 15.0499 9.10571 14.7054 9.10571 14.2805C9.10571 13.8556 8.76126 13.5111 8.33634 13.5111H7.18356V12.3584C7.18356 11.9335 6.83911 11.589 6.41419 11.589C5.9893 11.589 5.64481 11.9334 5.64481 12.3584V13.5111H4.49203C4.06715 13.5111 3.72266 13.8556 3.72266 14.2805C3.72266 14.7054 4.06715 15.0499 4.49203 15.0499Z" fill="#878787"/>
</svg>
