<svg width="20" height="20" viewBox="0 0 20 20" fill="none" xmlns="http://www.w3.org/2000/svg">
<path d="M17.3138 1.75736C19.6569 4.1005 19.6569 7.89952 17.3138 10.2426L10.2427 17.3137C7.89946 19.6568 4.1005 19.6568 1.75735 17.3137C-0.585785 14.9705 -0.585785 11.1716 1.75735 8.82842L8.82845 1.75736C11.1716 -0.585788 14.9706 -0.585788 17.3138 1.75736ZM11.6576 13.0703L6.00071 7.4135L3.17157 10.2426C1.60947 11.8047 1.60947 14.3374 3.17157 15.8995C4.73366 17.4616 7.26632 17.4616 8.82845 15.8995L11.6576 13.0703ZM15.8995 3.17157C14.3374 1.60947 11.8048 1.60947 10.2427 3.17157L7.41491 5.99929L13.0718 11.6561L15.8995 8.82842C17.4616 7.26633 17.4616 4.73367 15.8995 3.17157Z" fill="white"/>
</svg>
