<svg width="44" height="44" viewBox="0 0 44 44" fill="none" xmlns="http://www.w3.org/2000/svg">
<rect y="0.000244141" width="44" height="44" rx="6" fill="#FF9238" fill-opacity="0.2"/>
<path d="M10.5277 22.781C10.5277 28.9771 15.4401 34 21.5 34C27.5599 34 32.4723 28.9771 32.4723 22.781C32.4723 16.5849 27.5599 11.562 21.5 11.562C15.4401 11.562 10.5277 16.5849 10.5277 22.781ZM13.3103 10L9 14.4072L10.7241 16.1701L15.0345 11.7629L13.3103 10ZM34 14.4072L29.6896 10L27.9655 11.7629L32.2759 16.1701L34 14.4072ZM20.2807 17.7946H22.719V21.5343H26.3764V24.0274H22.719V27.7671H20.2807V24.0274H16.6232V21.5343H20.2807V17.7946Z" fill="#FF9238"/>
</svg>
