<svg width="44" height="44" viewBox="0 0 44 44" fill="none" xmlns="http://www.w3.org/2000/svg">
<rect y="0.000244141" width="44" height="44" rx="6" fill="#36B9FF" fill-opacity="0.2"/>
<path d="M12.4 26.8002V31.6002H17.2V34.0002H10V26.8002H12.4ZM34 26.8002V34.0002H26.8V31.6002H31.6V26.8002H34ZM16.6 16.0002C16.6 18.9826 19.0177 21.4002 22 21.4002C24.9824 21.4002 27.4 18.9826 27.4 16.0002H29.8C29.8 19.009 28.0965 21.6198 25.6013 22.9209L25.6 30.4002H18.4L18.3999 22.9215C15.9041 21.6207 14.2 19.0095 14.2 16.0002H16.6ZM22 13.6002C23.6568 13.6002 25 14.9434 25 16.6002C25 18.2571 23.6568 19.6002 22 19.6002C20.3432 19.6002 19 18.2571 19 16.6002C19 14.9434 20.3432 13.6002 22 13.6002ZM17.2 10.0002V12.4002L12.4 12.399V17.2002H10V10.0002H17.2ZM34 10.0002V17.2002H31.6V12.4002H26.8V10.0002H34Z" fill="#36B9FF"/>
</svg>
