<svg width="44" height="44" viewBox="0 0 44 44" fill="none" xmlns="http://www.w3.org/2000/svg">
<rect width="44" height="44" rx="6" fill="#B579FF" fill-opacity="0.2"/>
<path d="M30.2652 18.1464L29.985 18.7929C29.78 19.2662 29.1291 19.2662 28.924 18.7929L28.6439 18.1464C28.1444 16.9937 27.2449 16.0759 26.1224 15.5738L25.2591 15.1877C24.7924 14.9789 24.7924 14.2958 25.2591 14.087L26.0741 13.7224C27.2255 13.2074 28.1411 12.2557 28.6319 11.0638L28.9197 10.3652C29.1202 9.87827 29.7889 9.87827 29.9893 10.3652L30.277 11.0638C30.768 12.2557 31.6836 13.2074 32.835 13.7224L33.6499 14.087C34.1167 14.2958 34.1167 14.9789 33.6499 15.1877L32.7867 15.5738C31.6642 16.0759 30.7647 16.9937 30.2652 18.1464ZM29.4545 21.4286C30.2153 21.4286 30.947 21.3032 31.6303 21.072C31.6943 21.5627 31.7273 22.0632 31.7273 22.5714C31.7273 28.8832 26.6395 34 20.3636 34C18.429 34 16.6073 33.5138 15.0127 32.6562L9 34L10.3361 27.9529C9.48345 26.3493 9 24.5171 9 22.5714C9 16.2596 14.0877 11.1429 20.3636 11.1429C21.3927 11.1429 22.3899 11.2804 23.338 11.5383C22.8888 12.4528 22.6364 13.4825 22.6364 14.5714C22.6364 18.3585 25.689 21.4286 29.4545 21.4286ZM14.6818 22.5714C14.6818 25.7273 17.2257 28.2857 20.3636 28.2857C23.5016 28.2857 26.0455 25.7273 26.0455 22.5714H23.7727C23.7727 24.465 22.2465 26 20.3636 26C18.4808 26 16.9545 24.465 16.9545 22.5714H14.6818Z" fill="#B579FF"/>
</svg>
