<svg width="44" height="44" viewBox="0 0 44 44" fill="none" xmlns="http://www.w3.org/2000/svg">
<rect y="0.000244141" width="44" height="44" rx="6" fill="#FF5959" fill-opacity="0.2"/>
<path d="M22 34C15.3726 34 10 28.6274 10 22C10 15.3726 15.3726 10 22 10C28.6274 10 34 15.3726 34 22C34 28.6274 28.6274 34 22 34ZM17.2 23.2C17.2 25.8509 19.349 28 22 28C24.6509 28 26.8 25.8509 26.8 23.2H17.2ZM17.2 20.8C18.1941 20.8 19 19.9941 19 19C19 18.0059 18.1941 17.2 17.2 17.2C16.2059 17.2 15.4 18.0059 15.4 19C15.4 19.9941 16.2059 20.8 17.2 20.8ZM26.8 20.8C27.7941 20.8 28.6 19.9941 28.6 19C28.6 18.0059 27.7941 17.2 26.8 17.2C25.8059 17.2 25 18.0059 25 19C25 19.9941 25.8059 20.8 26.8 20.8Z" fill="#FF5959"/>
</svg>
