<svg width="44" height="44" viewBox="0 0 44 44" fill="none" xmlns="http://www.w3.org/2000/svg">
<rect width="44" height="44" rx="6" fill="#FF5959" fill-opacity="0.2"/>
<path d="M27.125 10C30.922 10 34 13.2432 34 17.7838C34 26.8649 24.625 32.0541 21.5 34C19.028 32.4608 12.6453 28.892 10.0856 22.973H15.9577L17.125 20.954L20.875 27.4405L23.4578 22.973H27.75V20.3784H22.0422L20.875 22.3974L17.125 15.9109L14.5423 20.3784L9.2628 20.3782C9.09272 19.5515 9 18.6869 9 17.7838C9 13.2432 12.125 10 15.875 10C18.2 10 20.25 11.2973 21.5 12.5946C22.75 11.2973 24.8 10 27.125 10Z" fill="#FF5959"/>
</svg>
