<svg width="44" height="44" viewBox="0 0 44 44" fill="none" xmlns="http://www.w3.org/2000/svg">
<rect width="44" height="44" rx="6" fill="#9E6AFF" fill-opacity="0.2"/>
<path d="M20.4477 8.5C26.0139 8.5 30.6099 12.5981 31.3046 17.9027L34.3843 22.68C34.5871 22.9945 34.5462 23.4643 34.0766 23.6628L31.3953 24.7959V28.75C31.3953 30.2412 30.17 31.45 28.6584 31.45H25.9229L25.9215 35.5H13.6054L13.6057 30.5132C13.6058 28.919 13.0081 27.4117 11.9023 26.0515C10.3992 24.2023 9.5 21.8547 9.5 19.3C9.5 13.3353 14.4014 8.5 20.4477 8.5ZM20.4477 11.2C15.913 11.2 12.2369 14.8265 12.2369 19.3C12.2369 21.1696 12.8776 22.9354 14.0375 24.3624C15.5344 26.2039 16.3428 28.3007 16.3426 30.5135L16.3425 32.8H23.1855L23.1869 28.75H28.6584V23.0151L30.7791 22.1189L28.6683 18.8445L28.5901 18.2486C28.0652 14.2394 24.5863 11.2 20.4477 11.2ZM19.722 16.2795L20.4477 16.9954L21.1734 16.2795C22.1086 15.3569 23.625 15.3569 24.5602 16.2795C25.4954 17.2021 25.4954 18.6979 24.5602 19.6205L20.4477 23.6775L16.3352 19.6205C15.3999 18.6979 15.3999 17.2021 16.3352 16.2795C17.2704 15.3569 18.7867 15.3569 19.722 16.2795Z" fill="#9E6AFF"/>
</svg>
