<svg width="44" height="44" viewBox="0 0 44 44" fill="none" xmlns="http://www.w3.org/2000/svg">
<rect y="0.000244141" width="44" height="44" rx="6" fill="#72737A" fill-opacity="0.2"/>
<path d="M10.6545 30.1869H17.8541V31.8473C17.8541 33.8647 16.2424 35.5002 14.2543 35.5002C12.2662 35.5002 10.6545 33.8647 10.6545 31.8473V30.1869ZM15.8906 14.4069C18.5086 14.4069 19.8176 18.2317 19.8176 20.8884C19.8176 22.2168 19.1631 23.5451 18.5086 25.5377L17.8541 27.5302H10.6545C10.6545 26.2018 10 24.2093 10 20.8884C10 17.5675 12.6152 14.4069 15.8906 14.4069ZM31.6694 25.0041L31.3852 26.6392C31.04 28.6261 29.1728 29.9527 27.2149 29.6024C25.2571 29.2521 23.9497 27.3574 24.2951 25.3705L24.5791 23.7354L31.6694 25.0041ZM29.2131 8.54117C32.4387 9.11834 34.4733 12.6918 33.905 15.9622C33.3368 19.2326 32.3512 21.0796 32.124 22.3877L25.0337 21.119L24.7302 19.0415C24.4265 16.9639 24.0093 15.5404 24.2365 14.2322C24.6912 11.6159 26.6348 8.07985 29.2131 8.54117Z" fill="#72737A"/>
</svg>
