<svg width="44" height="44" viewBox="0 0 44 44" fill="none" xmlns="http://www.w3.org/2000/svg">
<rect y="0.000244141" width="44" height="44" rx="6" fill="#36B9FF" fill-opacity="0.2"/>
<path d="M22 9.50024L14.9289 16.8226C11.0237 20.8666 11.0237 27.4232 14.9289 31.4672C18.8342 35.5112 25.1658 35.5112 29.0711 31.4672C32.9763 27.4232 32.9763 20.8666 29.0711 16.8226L22 9.50024ZM26.7141 20.8938L18.8573 29.0298L17.286 27.4025L25.1428 19.2667L26.7141 20.8938ZM17.6788 19.6734C18.3297 18.9994 19.385 18.9994 20.0359 19.6734C20.6868 20.3475 20.6868 21.4403 20.0359 22.1142C19.385 22.7882 18.3297 22.7882 17.6788 22.1142C17.0279 21.4403 17.0279 20.3475 17.6788 19.6734ZM26.3212 28.623C25.6703 29.297 24.6151 29.297 23.9642 28.623C23.3133 27.949 23.3133 26.8562 23.9642 26.1822C24.6151 25.5082 25.6703 25.5082 26.3212 26.1822C26.9721 26.8562 26.9721 27.949 26.3212 28.623Z" fill="#36B9FF"/>
</svg>
