<svg width="44" height="44" viewBox="0 0 44 44" fill="none" xmlns="http://www.w3.org/2000/svg">
<rect width="44" height="44" rx="6" fill="#F5BD44" fill-opacity="0.2"/>
<path d="M20.6875 29.0714H16.6726C16.2826 27.4352 14.5242 26.0959 13.8021 25.2133C12.3616 23.4525 11.5 21.2176 11.5 18.7857C11.5 13.1051 16.201 8.5 22 8.5C27.799 8.5 32.5 13.1051 32.5 18.7857C32.5 21.2189 31.6374 23.4548 30.1956 25.2161C29.4739 26.0976 27.717 27.4355 27.3274 29.0714H23.3125V22.6429H20.6875V29.0714ZM27.25 31.6429V32.9286C27.25 34.3488 26.0748 35.5 24.625 35.5H19.375C17.9253 35.5 16.75 34.3488 16.75 32.9286V31.6429H27.25Z" fill="#F5BD44"/>
</svg>
