<svg width="44" height="44" viewBox="0 0 44 44" fill="none" xmlns="http://www.w3.org/2000/svg">
<rect y="0.000244141" width="44" height="44" rx="6" fill="#D327AD" fill-opacity="0.2"/>
<path d="M20.8 26.0313C16.3968 25.4574 13 21.7691 13 17.3046C13 12.4421 17.0294 8.50024 22 8.50024C26.9705 8.50024 31 12.4421 31 17.3046C31 21.7691 27.6033 25.4574 23.2 26.0313V28.4568H29.2V30.8046H23.2V35.5002H20.8V30.8046H14.8V28.4568H20.8V26.0313ZM22 23.7611C25.6451 23.7611 28.6 20.8705 28.6 17.3046C28.6 13.7387 25.6451 10.8481 22 10.8481C18.3549 10.8481 15.4 13.7387 15.4 17.3046C15.4 20.8705 18.3549 23.7611 22 23.7611Z" fill="#D327AD"/>
</svg>
