<svg width="28" height="29" viewBox="0 0 28 29" fill="none" xmlns="http://www.w3.org/2000/svg">
<path d="M23.3333 26.1666H4.66667C4.02234 26.1666 3.5 25.6443 3.5 24.9999V9.83325H24.5V24.9999C24.5 25.6443 23.9777 26.1666 23.3333 26.1666ZM24.5 7.49992H3.5V3.99992C3.5 3.35559 4.02234 2.83325 4.66667 2.83325H23.3333C23.9777 2.83325 24.5 3.35559 24.5 3.99992V7.49992ZM8.16667 13.3333V17.9999H12.8333V13.3333H8.16667ZM8.16667 20.3333V22.6666H19.8333V20.3333H8.16667ZM15.1667 14.4999V16.8333H19.8333V14.4999H15.1667Z" fill="url(#paint0_linear_1599_577)"/>
<defs>
<linearGradient id="paint0_linear_1599_577" x1="14" y1="2.83325" x2="14" y2="26.1666" gradientUnits="userSpaceOnUse">
<stop stop-color="#B579FF"/>
<stop offset="1" stop-color="#A95BFF"/>
</linearGradient>
</defs>
</svg>
