<svg width="28" height="29" viewBox="0 0 28 29" fill="none" xmlns="http://www.w3.org/2000/svg">
<path d="M11.6127 3.07911C13.1685 2.75343 14.7938 2.74315 16.3854 3.0759C16.5919 4.42871 17.3886 5.67882 18.666 6.41628C19.9433 7.15373 21.4243 7.21873 22.699 6.7211C23.7831 7.93312 24.5868 9.34578 25.0827 10.856C24.0157 11.7113 23.3327 13.0254 23.3327 14.4991C23.3327 15.9738 24.0166 17.2886 25.0845 18.1438C24.838 18.8909 24.5118 19.6243 24.1029 20.3325C23.694 21.0408 23.2221 21.6899 22.6982 22.277C21.4236 21.7796 19.943 21.8448 18.666 22.582C17.3897 23.3189 16.5932 24.5677 16.3859 25.9193C14.8301 26.2449 13.2048 26.2552 11.6132 25.9224C11.4067 24.5697 10.6099 23.3195 9.33262 22.582C8.05532 21.8446 6.57429 21.7796 5.29951 22.2773C4.2155 21.0653 3.41177 19.6525 2.91592 18.1423C3.98281 17.2871 4.66596 15.9729 4.66596 14.4991C4.66596 13.0246 3.98202 11.7097 2.91406 10.8545C3.16056 10.1074 3.48677 9.37408 3.89566 8.66585C4.30457 7.95761 4.77651 7.30847 5.30032 6.72141C6.57492 7.21869 8.05559 7.15358 9.33262 6.41628C10.6089 5.6794 11.4055 4.4307 11.6127 3.07911ZM13.9993 17.9991C15.9323 17.9991 17.4993 16.4322 17.4993 14.4991C17.4993 12.5662 15.9323 10.9992 13.9993 10.9992C12.0663 10.9992 10.4993 12.5662 10.4993 14.4991C10.4993 16.4322 12.0663 17.9991 13.9993 17.9991Z" fill="url(#paint0_linear_1599_579)"/>
<defs>
<linearGradient id="paint0_linear_1599_579" x1="13.9993" y1="2.83057" x2="13.9993" y2="26.1678" gradientUnits="userSpaceOnUse">
<stop stop-color="#B579FF"/>
<stop offset="1" stop-color="#A95BFF"/>
</linearGradient>
</defs>
</svg>
