<svg width="28" height="28" viewBox="0 0 28 28" fill="none" xmlns="http://www.w3.org/2000/svg">
<path d="M2.33268 18.6668H6.86972L13.0466 23.7206C13.1508 23.8058 13.2814 23.8524 13.416 23.8524C13.7381 23.8524 13.9993 23.5913 13.9993 23.2691V4.73105C13.9993 4.5964 13.9528 4.46588 13.8675 4.36166C13.6635 4.11232 13.296 4.07557 13.0466 4.27958L6.86972 9.33341H2.33268C1.68836 9.33341 1.16602 9.85574 1.16602 10.5001V17.5001C1.16602 18.1445 1.68836 18.6668 2.33268 18.6668ZM26.8327 14C26.8327 17.8407 25.1456 21.2873 22.4719 23.6392L20.8179 21.9851C23.0711 20.0593 24.4993 17.1964 24.4993 14C24.4993 10.8035 23.0711 7.94067 20.8179 6.01483L22.4719 4.36075C25.1456 6.71263 26.8327 10.1593 26.8327 14ZM20.9993 14C20.9993 11.7697 19.9563 9.78306 18.3315 8.50118L16.6642 10.1685C17.8742 11.0116 18.666 12.4133 18.666 14C18.666 15.5867 17.8742 16.9883 16.6642 17.8315L18.3315 19.4987C19.9563 18.2169 20.9993 16.2302 20.9993 14Z" fill="url(#paint0_linear_1599_592)"/>
<defs>
<linearGradient id="paint0_linear_1599_592" x1="13.9993" y1="4.14771" x2="13.9993" y2="23.8524" gradientUnits="userSpaceOnUse">
<stop stop-color="#B579FF"/>
<stop offset="1" stop-color="#A95BFF"/>
</linearGradient>
</defs>
</svg>
