<?xml version="1.0" encoding="UTF-8"?>
<svg version="1.1" xmlns="http://www.w3.org/2000/svg" width="460" height="460">
<path d="M0 0 C1.37738342 0.00081573 1.37738342 0.00081573 2.78259277 0.00164795 C60.05136063 0.15691182 115.17246044 21.53640941 156.96875 60.8671875 C158.89451075 62.64353578 160.81337294 64.32453692 162.8359375 65.98046875 C165.06871586 67.85539085 166.94334613 69.60117861 168.8125 71.8125 C170.94506227 74.33237665 173.0906353 76.81959034 175.30859375 79.265625 C201.66490261 108.56432464 218.65899553 145.80340861 226.9375 184.125 C227.08864258 184.81988525 227.23978516 185.51477051 227.39550781 186.23071289 C230.33403524 200.68952815 231.09544057 214.97870364 231.0625 229.6875 C231.06168427 231.06488342 231.06168427 231.06488342 231.06085205 232.47009277 C230.90558818 289.73886063 209.52609059 344.85996044 170.1953125 386.65625 C168.41896422 388.58201075 166.73796308 390.50087294 165.08203125 392.5234375 C163.20710915 394.75621586 161.46132139 396.63084613 159.25 398.5 C156.73012335 400.63256227 154.24290966 402.7781353 151.796875 404.99609375 C122.49817536 431.35240261 85.25909139 448.34649553 46.9375 456.625 C46.24261475 456.77614258 45.54772949 456.92728516 44.83178711 457.08300781 C30.37297185 460.02153524 16.08379636 460.78294057 1.375 460.75 C0.45674438 460.74945618 -0.46151123 460.74891235 -1.40759277 460.74835205 C-58.67636063 460.59308818 -113.79746044 439.21359059 -155.59375 399.8828125 C-157.51951075 398.10646422 -159.43837294 396.42546308 -161.4609375 394.76953125 C-163.69371586 392.89460915 -165.56834613 391.14882139 -167.4375 388.9375 C-169.57006227 386.41762335 -171.7156353 383.93040966 -173.93359375 381.484375 C-200.28990261 352.18567536 -217.28399553 314.94659139 -225.5625 276.625 C-225.71364258 275.93011475 -225.86478516 275.23522949 -226.02050781 274.51928711 C-228.95903524 260.06047185 -229.72044057 245.77129636 -229.6875 231.0625 C-229.68695618 230.14424438 -229.68641235 229.22598877 -229.68585205 228.27990723 C-229.53058818 171.01113937 -208.15109059 115.89003956 -168.8203125 74.09375 C-167.04396422 72.16798925 -165.36296308 70.24912706 -163.70703125 68.2265625 C-161.83210915 65.99378414 -160.08632139 64.11915387 -157.875 62.25 C-155.35512335 60.11743773 -152.86790966 57.9718647 -150.421875 55.75390625 C-121.12317536 29.39759739 -83.88409139 12.40350447 -45.5625 4.125 C-44.86761475 3.97385742 -44.17272949 3.82271484 -43.45678711 3.66699219 C-28.99797185 0.72846476 -14.70879636 -0.03294057 0 0 Z " fill="#FFFDFE" transform="translate(229.3125,-0.375)"/>
<path d="M0 0 C1.51843296 1.48133769 3.02076309 2.97952042 4.5 4.5 C5.04914063 5.01691406 5.59828125 5.53382813 6.1640625 6.06640625 C14.51917823 14.62258091 19.8071119 27.73596512 20.5 39.5 C20.61988281 41.27310547 20.61988281 41.27310547 20.7421875 43.08203125 C21.29566842 58.88879515 16.49204552 72.91075673 6.0625 84.8125 C4.55849615 86.39120602 3.03907615 87.95546613 1.5 89.5 C0.95859375 90.06460938 0.4171875 90.62921875 -0.140625 91.2109375 C-11.46666333 102.02215591 -27.57410942 106.02194239 -42.78051758 105.92211914 C-59.03234089 105.39897338 -72.20312348 97.75695823 -83.5 86.5 C-84.06460938 85.95859375 -84.62921875 85.4171875 -85.2109375 84.859375 C-96.02215591 73.53333667 -100.02194239 57.42589058 -99.92211914 42.21948242 C-99.39865496 25.95776733 -91.75045907 12.8105149 -80.5 1.5 C-79.98179687 0.94699219 -79.46359375 0.39398438 -78.9296875 -0.17578125 C-57.67612808 -20.81732718 -21.45616182 -18.90723432 0 0 Z " fill="#FF5151" transform="translate(267.5,184.5)"/>
<path d="M0 0 C4.04420651 1.77945087 7.46078487 4.39529673 11 7 C9.51246542 10.14921954 7.73810443 12.97557732 5.8125 15.875 C-9.75671818 40.26677515 -15.47182809 69.56389591 -9.97241211 98.19946289 C-9.17744859 101.54488302 -8.16702215 104.76674917 -7 108 C-6.72623535 108.76844238 -6.4524707 109.53688477 -6.17041016 110.32861328 C-2.52170445 120.2780108 1.8458869 129.05387347 8.21484375 137.53125 C10 140 10 140 11 143 C8.03 145.31 5.06 147.62 2 150 C-2.31491696 147.84254152 -3.87068782 145.74130634 -6.3125 141.8125 C-6.89572021 140.89005493 -6.89572021 140.89005493 -7.49072266 139.94897461 C-11.62380055 133.2502755 -14.86797406 126.21339652 -18 119 C-18.75603516 117.42025391 -18.75603516 117.42025391 -19.52734375 115.80859375 C-27.82220213 96.25914541 -28.58620153 70.54403726 -24 50 C-23.78988281 48.90945312 -23.57976562 47.81890625 -23.36328125 46.6953125 C-19.76419595 30.64865904 -11.79430947 11.79430947 0 0 Z " fill="#FF5555" transform="translate(126,155)"/>
<path d="M0 0 C4.25566209 1.49860787 6.04581794 4.5774891 8.3125 8.25 C8.89680786 9.18175049 8.89680786 9.18175049 9.49291992 10.13232422 C15.68335603 20.17517764 20.8886012 30.58263532 24 42 C24.18191895 42.64437012 24.36383789 43.28874023 24.55126953 43.95263672 C29.85104973 63.27465869 30.1416211 84.58861951 25 104 C24.81195801 104.70995117 24.62391602 105.41990234 24.43017578 106.15136719 C20.09869985 121.78878785 12.98966045 137.88226182 2 150 C-0.79108116 148.67855892 -3.25786389 147.19617639 -5.75 145.375 C-6.67039062 144.70597656 -6.67039062 144.70597656 -7.609375 144.0234375 C-8.06828125 143.68570313 -8.5271875 143.34796875 -9 143 C-7.49414345 139.81112731 -5.69283644 136.9405092 -3.75 134 C12.52296465 108.39450697 17.67407273 79.76313312 11.2578125 50.12109375 C8.05318775 36.48747228 2.46758275 22.44828531 -6.74609375 11.7265625 C-9 9 -9 9 -9 7 C-7.03125 5.2734375 -7.03125 5.2734375 -4.5 3.375 C-3.6646875 2.74335938 -2.829375 2.11171875 -1.96875 1.4609375 C-1.3190625 0.97882813 -0.669375 0.49671875 0 0 Z " fill="#FF5454" transform="translate(328,155)"/>
<path d="M0 0 C6.92126442 2.49720453 10.46107719 11.82745144 13.5234375 18.140625 C23.31998245 40.82111089 23.32441234 64.2817364 14.54882812 87.18017578 C7.59204765 104.20397617 7.59204765 104.20397617 0 108 C-2.97 105.69 -5.94 103.38 -9 101 C-7.49729942 97.99459883 -5.90697605 95.15497021 -4.18188477 92.27954102 C6.48587506 74.31758644 8.78686431 54.06209212 4.1875 33.71875 C1.7728238 26.15700084 -1.74925482 17.95834273 -6.8125 11.79296875 C-8 10 -8 10 -7.91015625 7.953125 C-6.79212563 5.55391767 -5.49777335 4.39821868 -3.4375 2.75 C-2.79683594 2.22921875 -2.15617187 1.7084375 -1.49609375 1.171875 C-0.75552734 0.59179688 -0.75552734 0.59179688 0 0 Z " fill="#FF5555" transform="translate(302,176)"/>
<path d="M0 0 C2.79108116 1.32144108 5.25786389 2.80382361 7.75 4.625 C8.67039063 5.29402344 8.67039063 5.29402344 9.609375 5.9765625 C10.06828125 6.31429687 10.5271875 6.65203125 11 7 C9.58409603 9.9593064 7.95305842 12.67502996 6.1875 15.4375 C-3.75988743 31.97594366 -6.96079995 52.29887911 -2.8203125 71.22265625 C-0.16481961 80.21339645 3.15524289 88.7461357 8.99609375 96.16796875 C10 98 10 98 9.8828125 100.03515625 C8.79258227 102.46164212 7.50711281 103.59430975 5.4375 105.25 C4.47650391 106.03117187 4.47650391 106.03117187 3.49609375 106.828125 C3.00238281 107.21484375 2.50867188 107.6015625 2 108 C-2.37093831 106.50676089 -4.14535882 103.22986998 -6.375 99.4375 C-6.96099976 98.44689575 -6.96099976 98.44689575 -7.55883789 97.4362793 C-18.60679455 78.03703975 -22.3838118 55.00780799 -16.90673828 33.26831055 C-13.45212268 20.83545884 -8.168352 10.01418739 0 0 Z " fill="#FF5555" transform="translate(152,176)"/>
<path d="M0 0 C4.98669007 2.49334503 8.49675474 5.99350949 11 11 C11.54360446 15.95482094 11.56437074 19.87125852 9.3125 24.375 C6.14745126 27.96775803 2.78798338 31.69412413 -2.171875 32.23828125 C-8.01846537 32.40659218 -11.43192863 32.02425335 -16 28 C-20.39893104 23.00661882 -21.35676337 20.08984773 -21.28125 13.5390625 C-20.73016315 8.56397287 -17.99302299 5.87480597 -14.375 2.6875 C-9.71860985 -0.62098774 -5.60468123 -0.62082623 0 0 Z " fill="#FFF9FA" transform="translate(233,214)"/>
</svg>
