<svg width="14" height="17" viewBox="0 0 14 17" fill="none" xmlns="http://www.w3.org/2000/svg">
<path d="M11.773 12.023L7 16.7959L2.22703 12.023C-0.40901 9.3869 -0.40901 5.11307 2.22703 2.47703C4.86307 -0.15901 9.1369 -0.15901 11.773 2.47703C14.409 5.11307 14.409 9.3869 11.773 12.023ZM7 10.25C8.65682 10.25 10 8.90683 10 7.25C10 5.59314 8.65682 4.25 7 4.25C5.34314 4.25 4 5.59314 4 7.25C4 8.90683 5.34314 10.25 7 10.25ZM7 8.75C6.17155 8.75 5.5 8.07845 5.5 7.25C5.5 6.42157 6.17155 5.75 7 5.75C7.82845 5.75 8.5 6.42157 8.5 7.25C8.5 8.07845 7.82845 8.75 7 8.75Z" fill="#FF5151"/>
</svg>
