<svg width="20" height="20" viewBox="0 0 20 20" fill="none" xmlns="http://www.w3.org/2000/svg">
<path d="M14.5 4.6H19V6.4H17.2V18.1C17.2 18.5971 16.7971 19 16.3 19H3.7C3.20295 19 2.8 18.5971 2.8 18.1V6.4H1V4.6H5.5V1.9C5.5 1.40295 5.90295 1 6.4 1H13.6C14.0971 1 14.5 1.40295 14.5 1.9V4.6ZM15.4 6.4H4.6V17.2H15.4V6.4ZM7.3 9.1H9.1V14.5H7.3V9.1ZM10.9 9.1H12.7V14.5H10.9V9.1ZM7.3 2.8V4.6H12.7V2.8H7.3Z" fill="url(#paint0_linear_2216_859)"/>
<defs>
<linearGradient id="paint0_linear_2216_859" x1="10" y1="1" x2="10" y2="19" gradientUnits="userSpaceOnUse">
<stop stop-color="#B579FF"/>
<stop offset="1" stop-color="#A95BFF"/>
</linearGradient>
</defs>
</svg>
