<svg width="21" height="20" viewBox="0 0 21 20" fill="none" xmlns="http://www.w3.org/2000/svg">
<path d="M0.711344 12.0601C0.418304 10.6755 0.430174 9.2743 0.712184 7.94038C1.8221 8.0711 2.79089 7.7035 3.10767 6.93871C3.42446 6.17392 2.99934 5.22896 2.12209 4.53655C2.86592 3.3939 3.84833 2.39471 5.03456 1.62289C5.72702 2.50059 6.67226 2.92601 7.43724 2.60914C8.20222 2.29227 8.56982 1.32308 8.43881 0.21281C9.82332 -0.0802301 11.2245 -0.0683601 12.5585 0.21364C12.4278 1.32356 12.7954 2.29235 13.5602 2.60914C14.3249 2.92593 15.2699 2.5008 15.9623 1.62356C17.105 2.36739 18.1042 3.3498 18.876 4.53602C17.9983 5.22849 17.5729 6.17373 17.8897 6.93871C18.2066 7.70369 19.1758 8.0713 20.2861 7.94028C20.5791 9.3248 20.5672 10.726 20.2852 12.06C19.1753 11.9293 18.2065 12.2969 17.8897 13.0616C17.5729 13.8264 17.9981 14.7714 18.8753 15.4638C18.1315 16.6064 17.1491 17.6056 15.9628 18.3775C15.2704 17.4998 14.3251 17.0743 13.5602 17.3912C12.7952 17.7081 12.4276 18.6773 12.5586 19.7875C11.174 20.0806 9.77282 20.0687 8.43891 19.7867C8.56962 18.6768 8.20203 17.708 7.43724 17.3912C6.67245 17.0744 5.7275 17.4995 5.03508 18.3768C3.89243 17.633 2.89324 16.6506 2.12143 15.4643C2.99912 14.7719 3.42454 13.8266 3.10767 13.0616C2.79081 12.2967 1.82161 11.9291 0.711344 12.0601ZM2.49877 10.2104C3.59858 10.5148 4.5062 11.2117 4.95543 12.2963C5.40466 13.3808 5.25569 14.5154 4.69323 15.5083C4.78979 15.61 4.889 15.7092 4.99075 15.8056C5.98362 15.2432 7.11814 15.0943 8.20261 15.5435C9.28712 15.9927 9.98402 16.9002 10.2884 17.9999C10.4285 18.0037 10.5687 18.0038 10.7089 18.0001C11.0133 16.9003 11.7102 15.9927 12.7948 15.5435C13.8793 15.0942 15.0139 15.2432 16.0068 15.8057C16.1086 15.7091 16.2077 15.6099 16.3041 15.5081C15.7417 14.5153 15.5928 13.3807 16.042 12.2963C16.4912 11.2118 17.3987 10.5149 18.4984 10.2105C18.5022 10.0704 18.5023 9.9301 18.4986 9.7899C17.3988 9.4856 16.4912 8.7886 16.042 7.70407C15.5927 6.61953 15.7417 5.48494 16.3042 4.49204C16.2076 4.39031 16.1084 4.2912 16.0066 4.19479C15.0138 4.75717 13.8793 4.9061 12.7948 4.4569C11.7103 4.0077 11.0134 3.10016 10.709 2.00044C10.5689 1.99666 10.4287 1.99659 10.2884 2.00024C9.98412 3.10005 9.28712 4.00767 8.20261 4.4569C7.11806 4.90613 5.98348 4.75715 4.99057 4.1947C4.88884 4.29126 4.78973 4.39047 4.69333 4.49222C5.2557 5.48509 5.40463 6.61961 4.95543 7.70407C4.50623 8.7885 3.59869 9.4855 2.49897 9.7899C2.49519 9.93 2.49512 10.0702 2.49877 10.2104ZM10.4987 13.0002C8.84182 13.0002 7.49871 11.657 7.49871 10.0002C7.49871 8.3433 8.84182 7.00018 10.4987 7.00018C12.1555 7.00018 13.4987 8.3433 13.4987 10.0002C13.4987 11.657 12.1555 13.0002 10.4987 13.0002ZM10.4987 11.0002C11.051 11.0002 11.4987 10.5525 11.4987 10.0002C11.4987 9.4479 11.051 9.0002 10.4987 9.0002C9.94642 9.0002 9.49872 9.4479 9.49872 10.0002C9.49872 10.5525 9.94642 11.0002 10.4987 11.0002Z" fill="white"/>
</svg>
