<svg width="17" height="18" viewBox="0 0 17 18" fill="none" xmlns="http://www.w3.org/2000/svg">
<path d="M5 15.3604V16.9708C5 17.2009 4.81345 17.3874 4.58333 17.3874C4.48586 17.3874 4.39148 17.3533 4.31659 17.2908L0.884108 14.4305C0.707325 14.2832 0.683442 14.0204 0.830758 13.8437C0.909925 13.7487 1.0272 13.6938 1.15086 13.6938H13.3333C14.2538 13.6938 15 12.9475 15 12.0271V5.36039H16.6667V12.0271C16.6667 13.868 15.1742 15.3604 13.3333 15.3604H5ZM11.6667 2.02706V0.416667C11.6667 0.18655 11.8532 0 12.0833 0C12.1808 0 12.2752 0.034175 12.3501 0.096575L15.7826 2.95697C15.9593 3.1043 15.9832 3.36703 15.8359 3.54382C15.7567 3.63881 15.6395 3.69373 15.5158 3.69373L3.33333 3.69372C2.41286 3.69372 1.66667 4.43992 1.66667 5.36039V12.0271H0V5.36039C0 3.51944 1.49238 2.02706 3.33333 2.02706H11.6667Z" fill="#878787"/>
</svg>
