<svg width="18" height="17" viewBox="0 0 18 17" fill="none" xmlns="http://www.w3.org/2000/svg">
<path d="M13.3333 13.236V11.6667L17.5 14.1667L13.3333 16.6667V14.9246C10.7687 14.5582 8.54275 12.882 7.50242 10.4544L7.5 10.4488L7.49758 10.4544C6.31577 13.212 3.60423 15 0.604025 15H0V13.3333H0.604025C2.93752 13.3333 5.04649 11.9427 5.96571 9.79783L6.59336 8.33333L5.96571 6.86883C5.04649 4.72398 2.93752 3.33333 0.604025 3.33333H0V1.66667H0.604025C3.60423 1.66667 6.31577 3.45464 7.49758 6.21228L7.5 6.21784L7.50242 6.21228C8.54275 3.78467 10.7687 2.10852 13.3333 1.74209V0L17.5 2.5L13.3333 5V3.4307C11.4388 3.78136 9.81142 5.05558 9.03433 6.86883L8.40667 8.33333L9.03433 9.79783C9.81142 11.6111 11.4388 12.8853 13.3333 13.236Z" fill="#878787"/>
</svg>
