<?xml version="1.0" encoding="UTF-8"?>
<svg version="1.1" xmlns="http://www.w3.org/2000/svg" width="96" height="96">
<path d="M0 0 C1.8569751 -0.00472824 1.8569751 -0.00472824 3.75146484 -0.009552 C5.11295609 -0.00776222 6.47444701 -0.00571127 7.8359375 -0.00341797 C9.22216814 -0.00409106 10.60839867 -0.00506113 11.99462891 -0.00631714 C14.90333172 -0.00779387 17.81200387 -0.00564037 20.72070312 -0.00097656 C24.45690348 0.00472073 28.19303202 0.00144159 31.92922974 -0.00454903 C34.79273016 -0.00815532 37.65621343 -0.00701574 40.51971436 -0.00442123 C41.89768482 -0.00375215 43.27565682 -0.00457973 44.65362549 -0.00690079 C46.57637504 -0.00942839 48.49913002 -0.0048957 50.421875 0 C52.06615479 0.00119339 52.06615479 0.00119339 53.74365234 0.00241089 C56.2109375 0.12939453 56.2109375 0.12939453 57.2109375 1.12939453 C57.31123607 3.55796488 57.34712175 5.95811066 57.34033203 8.38720703 C57.34296051 9.52618439 57.34296051 9.52618439 57.34564209 10.68817139 C57.3500608 13.21026869 57.34712256 15.73229646 57.34375 18.25439453 C57.34442303 19.9993491 57.34539305 21.74430357 57.34664917 23.48925781 C57.34812617 27.15121348 57.34597153 30.81314481 57.34130859 34.47509766 C57.3356113 39.17983945 57.3388903 43.88452421 57.34488106 48.58926392 C57.34848662 52.19393344 57.34734811 55.79858935 57.34475327 59.40325928 C57.34408398 61.13848884 57.34491246 62.87371962 57.34723282 64.60894775 C57.34975927 67.02985941 57.34591888 69.45067739 57.34033203 71.87158203 C57.34235626 72.59577332 57.34438049 73.3199646 57.34646606 74.06610107 C57.32520016 79.01513187 57.32520016 79.01513187 56.2109375 80.12939453 C54.28331933 80.22860316 52.35204396 80.25738818 50.421875 80.25878906 C49.1838916 80.26194122 47.9459082 80.26509338 46.67041016 80.26834106 C45.30891891 80.26655128 43.94742799 80.26450033 42.5859375 80.26220703 C41.19970686 80.26288012 39.81347633 80.26385019 38.42724609 80.2651062 C35.51854328 80.26658293 32.60987113 80.26442943 29.70117188 80.25976562 C25.96497152 80.25406834 22.22884298 80.25734748 18.49264526 80.26333809 C15.62914484 80.26694438 12.76566157 80.2658048 9.90216064 80.2632103 C8.52419018 80.26254122 7.14621818 80.2633688 5.76824951 80.26568985 C3.84549996 80.26821745 1.92274498 80.26368477 0 80.25878906 C-1.64427979 80.25759567 -1.64427979 80.25759567 -3.32177734 80.25637817 C-5.7890625 80.12939453 -5.7890625 80.12939453 -6.7890625 79.12939453 C-6.86132752 77.27651952 -6.8728747 75.42105576 -6.8515625 73.56689453 C-6.84253906 72.55498047 -6.83351563 71.54306641 -6.82421875 70.50048828 C-6.81261719 69.71802734 -6.80101562 68.93556641 -6.7890625 68.12939453 C-9.4290625 68.12939453 -12.0690625 68.12939453 -14.7890625 68.12939453 C-14.7890625 65.48939453 -14.7890625 62.84939453 -14.7890625 60.12939453 C-12.1490625 60.12939453 -9.5090625 60.12939453 -6.7890625 60.12939453 C-6.7890625 57.48939453 -6.7890625 54.84939453 -6.7890625 52.12939453 C-9.4290625 52.12939453 -12.0690625 52.12939453 -14.7890625 52.12939453 C-14.7890625 49.48939453 -14.7890625 46.84939453 -14.7890625 44.12939453 C-12.1490625 44.12939453 -9.5090625 44.12939453 -6.7890625 44.12939453 C-6.7890625 41.48939453 -6.7890625 38.84939453 -6.7890625 36.12939453 C-9.4290625 36.12939453 -12.0690625 36.12939453 -14.7890625 36.12939453 C-14.7890625 33.48939453 -14.7890625 30.84939453 -14.7890625 28.12939453 C-12.1490625 28.12939453 -9.5090625 28.12939453 -6.7890625 28.12939453 C-6.7890625 25.48939453 -6.7890625 22.84939453 -6.7890625 20.12939453 C-9.4290625 20.12939453 -12.0690625 20.12939453 -14.7890625 20.12939453 C-14.7890625 17.48939453 -14.7890625 14.84939453 -14.7890625 12.12939453 C-12.1490625 12.12939453 -9.5090625 12.12939453 -6.7890625 12.12939453 C-6.80066406 11.34693359 -6.81226563 10.56447266 -6.82421875 9.75830078 C-6.83324219 8.74638672 -6.84226562 7.73447266 -6.8515625 6.69189453 C-6.86316406 5.68255859 -6.87476563 4.67322266 -6.88671875 3.63330078 C-6.7031066 -1.07451485 -4.11402089 0.00298589 0 0 Z M1.2109375 8.12939453 C1.2109375 29.24939453 1.2109375 50.36939453 1.2109375 72.12939453 C17.0509375 72.12939453 32.8909375 72.12939453 49.2109375 72.12939453 C49.2109375 51.00939453 49.2109375 29.88939453 49.2109375 8.12939453 C33.3709375 8.12939453 17.5309375 8.12939453 1.2109375 8.12939453 Z " fill="#2E2E2E" transform="translate(26.7890625,7.87060546875)"/>
<path d="M0 0 C2.64 0 5.28 0 8 0 C8 3.96 8 7.92 8 12 C11.96 12 15.92 12 20 12 C20 14.64 20 17.28 20 20 C16.04 20 12.08 20 8 20 C8 23.96 8 27.92 8 32 C5.36 32 2.72 32 0 32 C0 28.04 0 24.08 0 20 C-3.96 20 -7.92 20 -12 20 C-12 17.36 -12 14.72 -12 12 C-8.04 12 -4.08 12 0 12 C0 8.04 0 4.08 0 0 Z " fill="#2E2E2E" transform="translate(48,32)"/>
</svg>
