<?xml version="1.0" encoding="UTF-8"?>
<svg version="1.1" xmlns="http://www.w3.org/2000/svg" width="96" height="96">
<path d="M0 0 C4.83324915 0.59998955 7.19742923 3.02019902 10.7734375 6.171875 C12.17603117 7.36215475 13.58105356 8.54957749 14.98828125 9.734375 C15.70870605 10.34410156 16.42913086 10.95382813 17.17138672 11.58203125 C20.79532173 14.57588942 24.55848994 17.37586094 28.3359375 20.171875 C35.33026589 25.35370339 35.33026589 25.35370339 36.3984375 26.421875 C36.49674896 27.92057548 36.52642206 29.42386039 36.52783203 30.92578125 C36.53098419 31.88347412 36.53413635 32.84116699 36.53738403 33.82788086 C36.53434769 35.39034546 36.53434769 35.39034546 36.53125 36.984375 C36.53220673 38.04599854 36.53316345 39.10762207 36.53414917 40.20141602 C36.53483114 42.45100972 36.53297569 44.70060537 36.52880859 46.95019531 C36.5234606 50.40694571 36.52875304 53.86356617 36.53515625 57.3203125 C36.53449547 59.50000029 36.53321432 61.679688 36.53125 63.859375 C36.53327423 64.90101807 36.53529846 65.94266113 36.53738403 67.01586914 C36.53265579 68.45240845 36.53265579 68.45240845 36.52783203 69.91796875 C36.52703644 70.76544678 36.52624084 71.6129248 36.52542114 72.48608398 C36.3984375 74.421875 36.3984375 74.421875 35.3984375 75.421875 C33.2258107 75.52143778 31.04990644 75.54987219 28.875 75.55126953 C28.19371033 75.55302185 27.51242065 75.55477417 26.81048584 75.55657959 C24.54811083 75.56099742 22.28581337 75.55806038 20.0234375 75.5546875 C18.4578449 75.55536056 16.8922524 75.5563306 15.32666016 75.55758667 C12.04133105 75.55906355 8.75602908 75.55690941 5.47070312 75.55224609 C1.25023234 75.5465488 -2.97017486 75.54982786 -7.19064331 75.55581856 C-10.42472822 75.55942444 -13.65879795 75.55828546 -16.8928833 75.55569077 C-18.44948331 75.55502157 -20.00608468 75.55584966 -21.56268311 75.55817032 C-23.73453446 75.5606973 -25.90628146 75.55685565 -28.078125 75.55126953 C-29.31643066 75.55047394 -30.55473633 75.54967834 -31.83056641 75.54885864 C-34.6015625 75.421875 -34.6015625 75.421875 -35.6015625 74.421875 C-36.40780703 67.85986387 -36.3881545 61.15521234 -36.5559082 54.55273438 C-36.62736252 52.31910147 -36.72935885 50.08621325 -36.86352539 47.85546875 C-37.92014772 29.92361268 -37.92014772 29.92361268 -34.12026978 24.18469238 C-30.43782033 20.24016535 -26.16363427 17.34635818 -21.54702759 14.59558105 C-19.06951005 13.10088585 -16.83537759 11.36389236 -14.57421875 9.5625 C-13.2734527 8.59542515 -11.97024127 7.63162658 -10.6640625 6.671875 C-2.11525765 0.34301475 -2.11525765 0.34301475 0 0 Z M-7.4765625 15.859375 C-8.72219559 16.88105916 -9.96965526 17.90051965 -11.21875 18.91796875 C-12.21938477 19.76379517 -12.21938477 19.76379517 -13.24023438 20.62670898 C-15.6015625 22.421875 -15.6015625 22.421875 -18.75976562 24.18774414 C-24.73095725 27.64224956 -24.73095725 27.64224956 -28.21990967 33.36013794 C-29.09606626 38.90784576 -28.69090867 44.40092933 -28.3515625 49.984375 C-28.1040625 55.73875 -27.8565625 61.493125 -27.6015625 67.421875 C-9.1215625 67.421875 9.3584375 67.421875 28.3984375 67.421875 C30.86231439 47.92685562 30.86231439 47.92685562 26.77685547 28.45556641 C22.81834161 24.06562216 18.08993827 21.30793248 12.82080078 18.73193359 C9.28649523 16.82051618 6.30892138 14.33120466 3.22631836 11.77075195 C-1.08259281 8.59100917 -4.08267783 13.05942015 -7.4765625 15.859375 Z " fill="#2E2E2E" transform="translate(47.6015625,8.578125)"/>
</svg>
