<?xml version="1.0" encoding="UTF-8"?>
<svg version="1.1" xmlns="http://www.w3.org/2000/svg" width="96" height="96">
<path d="M0 0 C2.64 0 5.28 0 8 0 C8 3.96 8 7.92 8 12 C26.48 12 44.96 12 64 12 C64 8.04 64 4.08 64 0 C66.64 0 69.28 0 72 0 C72 6.6 72 13.2 72 20 C48.24 20 24.48 20 0 20 C0 13.4 0 6.8 0 0 Z " fill="#2E2E2E" transform="translate(12,64)"/>
<path d="M0 0 C23.76 0 47.52 0 72 0 C72 6.6 72 13.2 72 20 C69.36 20 66.72 20 64 20 C64 16.04 64 12.08 64 8 C45.52 8 27.04 8 8 8 C8 11.96 8 15.92 8 20 C5.36 20 2.72 20 0 20 C0 13.4 0 6.8 0 0 Z " fill="#2E2E2E" transform="translate(12,12)"/>
<path d="M0 0 C23.76 0 47.52 0 72 0 C72 2.64 72 5.28 72 8 C48.24 8 24.48 8 0 8 C0 5.36 0 2.72 0 0 Z " fill="#2E2E2E" transform="translate(12,44)"/>
</svg>
