<?xml version="1.0" encoding="UTF-8"?>
<svg version="1.1" xmlns="http://www.w3.org/2000/svg" width="96" height="96">
<path d="M0 0 C2.17578125 2.25 2.17578125 2.25 4.3125 5 C8.30509516 9.30489938 11.03967085 10.61459523 16.72143555 11.00976562 C18.99519989 11.06098401 21.26110012 11.06598743 23.53515625 11.03515625 C24.67855469 11.02355469 25.82195312 11.01195312 27 11 C27.495 11.495 27.495 11.495 28 12 C27.98097245 13.87527068 27.96097037 15.75053755 27.93554688 17.62573242 C27.92343948 25.35285021 27.92343948 25.35285021 31.25390625 32.140625 C33.93264615 34.69919985 33.93264615 34.69919985 36.75 36.82421875 C39 39 39 39 40.1484375 41.97265625 C40 45 40 45 37.7265625 47.359375 C36.70304687 48.14828125 35.67953125 48.9371875 34.625 49.75 C30.8108452 53.01031538 28.73287337 55.61047109 28.078125 60.6796875 C27.86546063 63.90988679 27.86669345 67.11602179 27.9296875 70.3515625 C27.95289062 71.55554688 27.97609375 72.75953125 28 74 C27.67 74.33 27.34 74.66 27 75 C25.02310908 74.96190146 23.0462193 74.92374265 21.06933594 74.88525391 C12.70450098 74.72318144 12.70450098 74.72318144 5.5703125 78.546875 C3.64230661 80.51317297 2.05065624 82.53231854 0.359375 84.7265625 C-2 87 -2 87 -5.02734375 87.1484375 C-8.67981702 85.73736373 -9.92516139 84.0725528 -12.3125 81 C-16.30509516 76.69510062 -19.03967085 75.38540477 -24.72143555 74.99023438 C-26.99519989 74.93901599 -29.26110012 74.93401257 -31.53515625 74.96484375 C-32.67855469 74.97644531 -33.82195313 74.98804687 -35 75 C-35.33 74.67 -35.66 74.34 -36 74 C-35.98097245 72.12472932 -35.96097037 70.24946245 -35.93554688 68.37426758 C-35.92343948 60.64714979 -35.92343948 60.64714979 -39.25390625 53.859375 C-41.93264615 51.30080015 -41.93264615 51.30080015 -44.75 49.17578125 C-47 47 -47 47 -48.01171875 43.98828125 C-47.99746808 40.35435969 -47.32115457 39.43020693 -44.8125 36.875 C-44.20019531 36.23304687 -43.58789062 35.59109375 -42.95703125 34.9296875 C-41 33 -41 33 -38.8046875 31.30078125 C-36.10139671 27.85437805 -36.36588208 24.57950725 -36.3125 20.3125 C-36.08952703 12.08952703 -36.08952703 12.08952703 -35 11 C-33.12440384 11.01903085 -31.24881151 11.0390367 -29.37329102 11.06445312 C-23.71152059 11.05966769 -19.49228414 11.02505708 -14.71875 7.74609375 C-12.31541873 5.26147334 -10.14664706 2.7056208 -8 0 C-4.99520528 -1.50239736 -3.19263121 -0.88838434 0 0 Z M-5 10 C-6.07608707 11.30138354 -7.13572189 12.61639239 -8.1875 13.9375 C-12.06274088 18.0140521 -15.54022314 18.79013201 -21 19 C-23.34081936 19.05712008 -25.65775154 19.04879684 -28 19 C-27.979375 19.99 -27.95875 20.98 -27.9375 22 C-28.00260649 32.50074675 -28.00260649 32.50074675 -30.84765625 36.77734375 C-32.81285253 38.69401667 -34.76623946 40.40736435 -37 42 C-35.61421944 45.17993123 -34.85243389 46.11142747 -31.9375 48.3125 C-27.94609609 52.03198345 -28.23203904 56.86351792 -28.05053711 61.9699707 C-28.01399002 63.64633342 -28.00426655 65.32324437 -28 67 C-27.01 66.979375 -26.02 66.95875 -25 66.9375 C-14.49925325 67.00260649 -14.49925325 67.00260649 -10.22265625 69.84765625 C-8.30598333 71.81285253 -6.59263565 73.76623946 -5 76 C-1.82006877 74.61421944 -0.88857253 73.85243389 1.3125 70.9375 C5.03198345 66.94609609 9.86351792 67.23203904 14.9699707 67.05053711 C16.64633342 67.01399002 18.32324437 67.00426655 20 67 C19.979375 66.01 19.95875 65.02 19.9375 64 C20.00260649 53.49925325 20.00260649 53.49925325 22.84765625 49.22265625 C24.81285253 47.30598333 26.76623946 45.59263565 29 44 C27.61421944 40.82006877 26.85243389 39.88857253 23.9375 37.6875 C19.94609609 33.96801655 20.23203904 29.13648208 20.05053711 24.0300293 C20.01399002 22.35366658 20.00426655 20.67675563 20 19 C19.01 19.020625 18.02 19.04125 17 19.0625 C6.46092506 18.99713933 6.46092506 18.99713933 2.29296875 16.15234375 C0.1875 13.9375 0.1875 13.9375 -1.58203125 11.71484375 C-2.04996094 11.14894531 -2.51789062 10.58304688 -3 10 C-3.66 10 -4.32 10 -5 10 Z " fill="#2E2E2E" transform="translate(52,5)"/>
<path d="M0 0 C4.8846525 2.26787438 7.73212562 5.1153475 10 10 C11.01315621 16.20121474 11.0034336 21.40448829 7.25 26.625 C4.3460147 30.10098241 1.77114838 31.73685795 -2.734375 32.40625 C-9.36701575 32.61244609 -13.33207097 32.00105463 -18.4765625 27.703125 C-22.53561676 23.1653105 -22.4270956 18.80141139 -22.3125 12.9140625 C-21.74397844 7.61259899 -19.22134216 5.16027505 -15.5 1.625 C-10.33499991 -0.77303575 -5.5997712 -0.75381535 0 0 Z M-9.75 9 C-12.60980567 11.54204948 -13.39650011 13.2281257 -14 17 C-12.6842033 20.61844093 -11.54023575 21.71813787 -8.125 23.5 C-5.01413076 24.25730638 -5.01413076 24.25730638 -2.25 23 C0.60980567 20.45795052 1.39650011 18.7718743 2 15 C0.6842033 11.38155907 -0.45976425 10.28186213 -3.875 8.5 C-6.98586924 7.74269362 -6.98586924 7.74269362 -9.75 9 Z " fill="#2E2E2E" transform="translate(54,32)"/>
</svg>
