<?xml version="1.0" encoding="UTF-8"?>
<svg version="1.1" xmlns="http://www.w3.org/2000/svg" width="96" height="96">
<path d="M0 0 C5.04497863 3.56839952 8.17008755 7.10251259 10.5625 12.8125 C10.90307617 16.24755859 10.90307617 16.24755859 10.85546875 19.9609375 C10.85122391 20.61832916 10.84697906 21.27572083 10.84260559 21.95303345 C10.82594977 24.03162391 10.7883262 26.10920774 10.75 28.1875 C10.73493605 29.60545464 10.72125065 31.02342464 10.70898438 32.44140625 C10.67609038 35.8987589 10.62440165 39.35553103 10.5625 42.8125 C7.9225 42.8125 5.2825 42.8125 2.5625 42.8125 C2.54791748 42.0918335 2.53333496 41.37116699 2.51831055 40.62866211 C2.44343041 37.33525913 2.34690159 34.04282564 2.25 30.75 C2.22744141 29.61626953 2.20488281 28.48253906 2.18164062 27.31445312 C1.98366462 21.14120138 1.72939115 16.1924892 -1.4375 10.8125 C-5.4169887 8.28705525 -7.45144307 7.66208454 -12.125 8.375 C-15.47488112 9.828722 -17.23342927 10.93025367 -19.4375 13.8125 C-20.51301115 17.07829885 -20.63171246 20.25044898 -20.75390625 23.671875 C-20.79580078 24.78691406 -20.83769531 25.90195313 -20.88085938 27.05078125 C-20.93983398 28.78908203 -20.93983398 28.78908203 -21 30.5625 C-21.04318359 31.73683594 -21.08636719 32.91117188 -21.13085938 34.12109375 C-21.23684794 37.01811451 -21.33891638 39.91521935 -21.4375 42.8125 C-24.0775 42.8125 -26.7175 42.8125 -29.4375 42.8125 C-29.51203622 38.6499388 -29.56628254 34.4877382 -29.60229492 30.32470703 C-29.61731825 28.91057563 -29.63774305 27.49649032 -29.66381836 26.08251953 C-29.70048954 24.04187603 -29.71729036 22.00185208 -29.73046875 19.9609375 C-29.7461792 18.73552246 -29.76188965 17.51010742 -29.77807617 16.24755859 C-29.1495903 9.90863657 -26.18037948 5.89358234 -21.4375 1.8125 C-15.20820182 -2.59358896 -7.02670166 -2.42740603 0 0 Z " fill="#2E2E2E" transform="translate(57.4375,45.1875)"/>
<path d="M0 0 C4.62821527 2.25589109 8.14191393 5.11588805 10 10 C10.9108394 16.13064978 10.98075153 21.48108501 7.25 26.625 C4.31985965 30.1322892 1.76966871 31.78803411 -2.8046875 32.3359375 C-13.29536144 32.46940663 -13.29536144 32.46940663 -18 28 C-21.62833663 24.18069828 -22.31000458 21.11720994 -22.5 16 C-22.25156236 9.3087462 -20.3143755 6.19865673 -15.5 1.625 C-10.30753916 -0.78578539 -5.62143897 -0.98595919 0 0 Z M-9.75 9 C-12.60980567 11.54204948 -13.39650011 13.2281257 -14 17 C-12.6842033 20.61844093 -11.54023575 21.71813787 -8.125 23.5 C-5.01413076 24.25730638 -5.01413076 24.25730638 -2.25 23 C0.60980567 20.45795052 1.39650011 18.7718743 2 15 C0.6842033 11.38155907 -0.45976425 10.28186213 -3.875 8.5 C-6.98586924 7.74269362 -6.98586924 7.74269362 -9.75 9 Z " fill="#2E2E2E" transform="translate(54,8)"/>
<path d="M0 0 C4.09131007 0.9331058 5.57237355 2.17306228 8.2265625 5.5078125 C9.21130245 9.38968593 8.98565864 12.73658817 7.40625 16.421875 C5.7423406 18.87701405 3.98318623 20.31587486 1.1015625 21.046875 C-2.87023154 21.30182124 -6.00961232 20.82464662 -9.3359375 18.5703125 C-12.17347726 15.00519845 -12.62351797 13.18385855 -12.28125 8.734375 C-10.77250663 2.11911562 -6.6516207 -0.51166313 0 0 Z M-2.7734375 9.5078125 C-2.7734375 10.1678125 -2.7734375 10.8278125 -2.7734375 11.5078125 C-2.1134375 11.5078125 -1.4534375 11.5078125 -0.7734375 11.5078125 C-0.7734375 10.8478125 -0.7734375 10.1878125 -0.7734375 9.5078125 C-1.4334375 9.5078125 -2.0934375 9.5078125 -2.7734375 9.5078125 Z " fill="#2E2E2E" transform="translate(75.7734375,31.4921875)"/>
<path d="M0 0 C4.09131007 0.9331058 5.57237355 2.17306228 8.2265625 5.5078125 C9.21130245 9.38968593 8.98565864 12.73658817 7.40625 16.421875 C5.7423406 18.87701405 3.98318623 20.31587486 1.1015625 21.046875 C-2.87023154 21.30182124 -6.00961232 20.82464662 -9.3359375 18.5703125 C-12.17347726 15.00519845 -12.62351797 13.18385855 -12.28125 8.734375 C-10.77250663 2.11911562 -6.6516207 -0.51166313 0 0 Z M-2.7734375 9.5078125 C-2.7734375 10.1678125 -2.7734375 10.8278125 -2.7734375 11.5078125 C-2.1134375 11.5078125 -1.4534375 11.5078125 -0.7734375 11.5078125 C-0.7734375 10.8478125 -0.7734375 10.1878125 -0.7734375 9.5078125 C-1.4334375 9.5078125 -2.0934375 9.5078125 -2.7734375 9.5078125 Z " fill="#2E2E2E" transform="translate(23.7734375,31.4921875)"/>
<path d="M0 0 C6.39287942 -0.38744724 9.97864956 -0.42357063 15 4 C17.60110148 7.6344422 18.36754701 10.06969486 18.29296875 14.51953125 C18.28330078 15.54111328 18.27363281 16.56269531 18.26367188 17.61523438 C18.23853516 18.67033203 18.21339844 19.72542969 18.1875 20.8125 C18.16719727 22.42415039 18.16719727 22.42415039 18.14648438 24.06835938 C18.11122577 26.71275455 18.06194366 29.35611748 18 32 C15.36 32 12.72 32 10 32 C9.98598145 31.16807129 9.98598145 31.16807129 9.97167969 30.31933594 C9.91784278 27.79533519 9.83422746 25.27316186 9.75 22.75 C9.73582031 21.87730469 9.72164062 21.00460938 9.70703125 20.10546875 C9.53263349 14.90657137 9.53263349 14.90657137 7.140625 10.390625 C5.00615293 8.72761341 5.00615293 8.72761341 2 9 C1.34 6.03 0.68 3.06 0 0 Z " fill="#2E2E2E" transform="translate(70,56)"/>
<path d="M0 0 C-0.66 2.97 -1.32 5.94 -2 9 C-2.78375 9.103125 -3.5675 9.20625 -4.375 9.3125 C-7.33045181 9.77595022 -7.33045181 9.77595022 -9 13 C-9.36433373 15.12337771 -9.36433373 15.12337771 -9.4140625 17.44921875 C-9.47207031 18.72055664 -9.47207031 18.72055664 -9.53125 20.01757812 C-9.57765625 21.33918945 -9.57765625 21.33918945 -9.625 22.6875 C-9.68300781 24.02651367 -9.68300781 24.02651367 -9.7421875 25.39257812 C-9.83640218 27.5948462 -9.92201588 29.79710722 -10 32 C-12.64 32 -15.28 32 -18 32 C-18.11674705 28.29193404 -18.18743274 24.5843446 -18.25 20.875 C-18.28351562 19.82828125 -18.31703125 18.7815625 -18.3515625 17.703125 C-18.43071965 11.44970999 -18.22876967 7.73497599 -14 3 C-9.59837866 -0.77281829 -5.53561592 -0.2478634 0 0 Z " fill="#2E2E2E" transform="translate(26,56)"/>
</svg>
