<?xml version="1.0" encoding="UTF-8"?>
<svg version="1.1" xmlns="http://www.w3.org/2000/svg" width="96" height="96">
<path d="M0 0 C5.82485779 3.51996782 10.54466582 8.98962934 12.5625 15.5 C13.36764105 23.33608208 13.68710392 31.11922577 8.5625 37.5 C3.75801361 42.54521222 -0.59927055 46.10562995 -7.70703125 46.8359375 C-16.22326573 46.92983204 -22.11345494 46.6177288 -28.40234375 40.62890625 C-34.7841668 33.72505269 -35.91792252 28.29832071 -35.7421875 18.9453125 C-35.04689797 11.08319245 -31.38995981 6.95041296 -25.53515625 1.9453125 C-18.47077988 -2.92213491 -7.84396301 -3.47595223 0 0 Z M-22.2421875 11.015625 C-25.88843743 14.88867517 -27.53340623 18.03334515 -27.4375 23.5 C-26.37127915 29.14987129 -23.86906159 32.8799496 -19.32421875 36.3671875 C-15.69675017 38.5451707 -12.55721941 38.90002487 -8.4296875 38.12109375 C-2.93913639 36.46140244 0.61893025 33.40256618 3.5625 28.5 C5.06240444 23.64736799 4.66415407 20.01136451 2.703125 15.4296875 C-0.08070801 10.7200522 -3.69401815 8.03889439 -8.875 6.4375 C-14.1527822 6.53009267 -18.14951897 7.57849212 -22.2421875 11.015625 Z " fill="#2E2E2E" transform="translate(59.4375,5.5)"/>
<path d="M0 0 C0.77633789 -0.00287018 1.55267578 -0.00574036 2.35253906 -0.00869751 C3.98633559 -0.0107299 5.62015691 -0.00525797 7.25390625 0.00732422 C9.74274538 0.02339067 12.22996087 0.00744846 14.71875 -0.01171875 C16.31250355 -0.00973617 17.9062561 -0.00589219 19.5 0 C20.60649902 -0.00910904 20.60649902 -0.00910904 21.73535156 -0.0184021 C27.90464993 0.06483024 31.80266982 1.72282781 36.4375 5.7109375 C40.88951976 10.88490641 42.12988745 14.97574759 41.9375 21.7734375 C41.89689453 23.64128906 41.89689453 23.64128906 41.85546875 25.546875 C41.82066406 26.48789063 41.78585938 27.42890625 41.75 28.3984375 C39.11 28.3984375 36.47 28.3984375 33.75 28.3984375 C33.66363281 27.51800781 33.57726562 26.63757813 33.48828125 25.73046875 C32.90926798 18.35333144 32.90926798 18.35333144 29.375 12.1484375 C23.52778066 8.25029127 16.73076757 9.17824888 9.9375 9.1484375 C8.19243164 9.1175 8.19243164 9.1175 6.41210938 9.0859375 C0.125931 9.05731517 -4.7931406 9.11668989 -10.25 12.3984375 C-13.3100391 17.49850266 -13.86393261 22.52755068 -14.25 28.3984375 C-16.89 28.3984375 -19.53 28.3984375 -22.25 28.3984375 C-22.33165496 26.19072945 -22.38948488 23.98213325 -22.4375 21.7734375 C-22.48970703 19.92878906 -22.48970703 19.92878906 -22.54296875 18.046875 C-22.02299081 11.57141637 -19.08764639 7.56106346 -14.25 3.3984375 C-9.49694283 0.49602759 -5.45589577 -0.04491461 0 0 Z " fill="#2E2E2E" transform="translate(38.25,59.6015625)"/>
</svg>
