<svg width="41" height="42" viewBox="0 0 41 42" fill="none" xmlns="http://www.w3.org/2000/svg">
<path d="M0 21C0 9.67816 9.17816 0.5 20.5 0.5C31.8218 0.5 41 9.67816 41 21C41 32.3218 31.8218 41.5 20.5 41.5C9.17816 41.5 0 32.3218 0 21Z" fill="#FFFEFF"/>
<path d="M15.5007 16.1667C15.5007 15.6604 15.9111 15.25 16.4173 15.25H29.2507C29.7569 15.25 30.1673 15.6604 30.1673 16.1667V27.1667C30.1673 27.6729 29.7569 28.0833 29.2507 28.0833H26.5007V30.8333C26.5007 31.3396 26.0903 31.75 25.584 31.75H12.7507C12.2444 31.75 11.834 31.3396 11.834 30.8333V19.8333C11.834 19.3271 12.2444 18.9167 12.7507 18.9167H15.5007V16.1667ZM17.334 18.9167H25.584C26.0903 18.9167 26.5007 19.3271 26.5007 19.8333V26.25H28.334V17.0833H17.334V18.9167ZM24.6673 26.9278V20.75H13.6673V29.5794L20.5342 23.1704L24.6673 26.9278ZM16.4173 24.875C17.1767 24.875 17.7923 24.2594 17.7923 23.5C17.7923 22.7406 17.1767 22.125 16.4173 22.125C15.6579 22.125 15.0423 22.7406 15.0423 23.5C15.0423 24.2594 15.6579 24.875 16.4173 24.875Z" fill="#878787"/>
</svg>
