<?xml version="1.0" encoding="UTF-8"?>
<svg version="1.1" xmlns="http://www.w3.org/2000/svg" width="140" height="140">
<path d="M0 0 C2.20537839 0.03689569 4.40908878 0.04101586 6.61474609 0.04052734 C17.36987092 0.11555848 17.36987092 0.11555848 20.81396484 2.41162109 C22.91354568 3.52448303 25.01834955 4.6275121 27.12646484 5.72412109 C41.44168035 13.35352941 49.84050468 24.37655313 54.70849609 39.78271484 C55.25570312 41.57902344 55.25570312 41.57902344 55.81396484 43.41162109 C56.06533203 44.22759766 56.31669922 45.04357422 56.57568359 45.88427734 C58.79009839 53.7839273 57.87046272 60.59573852 55.62646484 68.28662109 C55.39797852 69.07746094 55.16949219 69.86830078 54.93408203 70.68310547 C52.33652409 79.37974376 49.4769438 85.85337459 43.00146484 92.34912109 C39.57463738 95.95690314 38.25072729 97.95858978 38.37646484 102.97412109 C38.48861328 104.35277344 38.48861328 104.35277344 38.60302734 105.75927734 C39.30782644 114.62147343 35.07954985 121.5797564 29.81396484 128.41162109 C25.68957483 132.85388317 21.85716682 136.05190065 15.81396484 137.41162109 C15.81396484 138.07162109 15.81396484 138.73162109 15.81396484 139.41162109 C12.73511745 140.43790356 10.60132855 140.54068624 7.37646484 140.54443359 C5.78705078 140.54636719 5.78705078 140.54636719 4.16552734 140.54833984 C3.05951172 140.54447266 1.95349609 140.54060547 0.81396484 140.53662109 C-0.29205078 140.54048828 -1.39806641 140.54435547 -2.53759766 140.54833984 C-3.59720703 140.54705078 -4.65681641 140.54576172 -5.74853516 140.54443359 C-7.20453125 140.5427417 -7.20453125 140.5427417 -8.68994141 140.54101562 C-11.18603516 140.41162109 -11.18603516 140.41162109 -14.18603516 139.41162109 C-14.18603516 138.75162109 -14.18603516 138.09162109 -14.18603516 137.41162109 C-15.01103516 137.22599609 -15.83603516 137.04037109 -16.68603516 136.84912109 C-25.52446738 133.21905072 -30.93261548 125.72994323 -35.18603516 117.41162109 C-37.07221911 112.43209546 -37.17630993 108.23280059 -36.74853516 102.97412109 C-36.66392056 99.3904442 -36.86578428 97.86011247 -38.97119141 94.91162109 C-40.56335884 93.2530026 -42.17358389 91.61157236 -43.79931641 89.98583984 C-49.74875927 83.56901031 -52.40832394 75.48362853 -54.56103516 67.16162109 C-54.81300659 66.18781494 -54.81300659 66.18781494 -55.07006836 65.19433594 C-56.98515757 57.04356727 -56.29613587 50.41531509 -53.99853516 42.53662109 C-53.65798096 41.35253662 -53.65798096 41.35253662 -53.31054688 40.14453125 C-50.47785109 30.62847444 -46.7046407 22.19162307 -39.18603516 15.41162109 C-38.52603516 15.41162109 -37.86603516 15.41162109 -37.18603516 15.41162109 C-36.97076172 14.82380859 -36.75548828 14.23599609 -36.53369141 13.63037109 C-34.72010508 10.64452462 -32.65715981 9.61633993 -29.62353516 7.91162109 C-28.63224609 7.34443359 -27.64095703 6.77724609 -26.61962891 6.19287109 C-25.48654297 5.60505859 -24.35345703 5.01724609 -23.18603516 4.41162109 C-22.58082031 4.04987793 -21.97560547 3.68813477 -21.35205078 3.31542969 C-14.52655205 -0.35319439 -7.53763519 -0.13080863 0 0 Z " fill="#FBDAE4" transform="translate(69.18603515625,-0.41162109375)"/>
<path d="M0 0 C7.94295513 6.8464529 13.13781047 16.06738225 14.6953125 26.515625 C14.75753172 28.73996224 14.61528542 30.79589681 14.3203125 33 C14.248125 33.71414062 14.1759375 34.42828125 14.1015625 35.1640625 C12.62352398 44.67053752 6.58122393 52.7249055 -0.74609375 58.6953125 C-3.2602271 60.39171763 -5.72838757 61.33595752 -8.6796875 62 C-8.6796875 62.66 -8.6796875 63.32 -8.6796875 64 C-11.75853489 65.02628246 -13.8923238 65.12906515 -17.1171875 65.1328125 C-18.70660156 65.13474609 -18.70660156 65.13474609 -20.328125 65.13671875 C-21.43414062 65.13285156 -22.54015625 65.12898438 -23.6796875 65.125 C-25.33871094 65.13080078 -25.33871094 65.13080078 -27.03125 65.13671875 C-28.09085938 65.13542969 -29.15046875 65.13414062 -30.2421875 65.1328125 C-31.69818359 65.13112061 -31.69818359 65.13112061 -33.18359375 65.12939453 C-35.6796875 65 -35.6796875 65 -38.6796875 64 C-38.6796875 63.34 -38.6796875 62.68 -38.6796875 62 C-39.9171875 61.7215625 -39.9171875 61.7215625 -41.1796875 61.4375 C-50.01178271 57.81003233 -55.43775026 50.31936723 -59.6796875 42 C-60.78428968 38.99548206 -61.35834606 36.17898491 -61.6796875 33 C-61.81890625 31.95972656 -61.81890625 31.95972656 -61.9609375 30.8984375 C-62.67802287 21.0385136 -57.80321445 11.29547552 -51.5625 3.93359375 C-37.44831721 -10.56126202 -16.17251296 -12.16740787 0 0 Z " fill="#FB6057" transform="translate(93.6796875,75)"/>
<path d="M0 0 C3.43770829 -0.05385444 6.87457642 -0.09360344 10.3125 -0.125 C11.28896484 -0.14175781 12.26542969 -0.15851562 13.27148438 -0.17578125 C14.20927734 -0.18222656 15.14707031 -0.18867187 16.11328125 -0.1953125 C16.97735596 -0.20578613 17.84143066 -0.21625977 18.73168945 -0.22705078 C21 -0 21 -0 24 2 C26.09958084 3.11286194 28.2043847 4.21589101 30.3125 5.3125 C44.62771551 12.94190832 53.02653983 23.96493203 57.89453125 39.37109375 C58.25933594 40.56863281 58.62414062 41.76617187 59 43 C59.25136719 43.81597656 59.50273438 44.63195313 59.76171875 45.47265625 C61.97613355 53.3723062 61.05649787 60.18411743 58.8125 67.875 C58.58401367 68.66583984 58.35552734 69.45667969 58.12011719 70.27148438 C54.90424007 81.03825865 50.37609696 89.2656865 42 97 C41.34 97 40.68 97 40 97 C39.79246094 96.31035156 39.58492187 95.62070313 39.37109375 94.91015625 C35.83315539 84.11870408 30.29006396 76.21206823 20 71 C14.80659238 68.99951821 9.5196032 67.72626358 4 67 C4 66.67 4 66.34 4 66 C5.093125 65.7525 6.18625 65.505 7.3125 65.25 C10.88774181 64.27419011 10.88774181 64.27419011 12.9375 62.4375 C14.83508046 58.08422717 14.61288074 53.46995545 13.48046875 48.90625 C11.50320379 46.01658837 11.50320379 46.01658837 4 44 C4 35.09 4 26.18 4 17 C2.68 17 1.36 17 0 17 C0 11.39 0 5.78 0 0 Z " fill="#FBB9CF" transform="translate(66,0)"/>
<path d="M0 0 C12.564958 1.14226891 20.39001774 3.77364317 29 13 C35.28968149 20.89983995 39.14620263 30.88430691 38 41 C37.92910156 41.71671875 37.85820313 42.4334375 37.78515625 43.171875 C36.28532162 52.67644502 30.26543137 60.72122259 22.93359375 66.6953125 C20.4194604 68.39171763 17.95129993 69.33595752 15 70 C15 70.66 15 71.32 15 72 C11.71480525 73.09506492 9.26336585 73.09960608 5.8125 73.0625 C4.72582031 73.05347656 3.63914062 73.04445313 2.51953125 73.03515625 C1.68808594 73.02355469 0.85664062 73.01195312 0 73 C-0.13530844 69.93601549 -0.2342407 66.87802874 -0.3125 63.8125 C-0.35439453 62.94818359 -0.39628906 62.08386719 -0.43945312 61.19335938 C-0.56355782 54.71509445 -0.56355782 54.71509445 2.22265625 51.1796875 C3.13917969 50.46039063 4.05570312 49.74109375 5 49 C6.58440886 47.43859062 8.16778475 45.87613218 9.75 44.3125 C10.91789062 43.16201172 10.91789062 43.16201172 12.109375 41.98828125 C14.05230615 40.1389301 14.05230615 40.1389301 15 38 C15.66 38 16.32 38 17 38 C16.97838091 33.03841904 16.72239294 29.9076219 13.5625 25.9375 C9.2117405 23.20371342 9.2117405 23.20371342 0 24 C0 16.08 0 8.16 0 0 Z " fill="#EC3D59" transform="translate(70,67)"/>
<path d="M0 0 C0.83402344 -0.04576172 1.66804688 -0.09152344 2.52734375 -0.13867188 C7.18987976 -0.22284639 10.11659358 0.2160425 13.83203125 3.16015625 C15.9023834 5.20298838 16.67170265 6.14489161 17.43359375 8.9921875 C17.35238281 9.75789063 17.27117187 10.52359375 17.1875 11.3125 C17.09275391 12.48425781 17.09275391 12.48425781 16.99609375 13.6796875 C16.91488281 14.25976562 16.83367187 14.83984375 16.75 15.4375 C16.09 15.4375 15.43 15.4375 14.75 15.4375 C14.49992187 16.01371094 14.24984375 16.58992188 13.9921875 17.18359375 C12.58134724 19.7435146 10.96090765 21.45738477 8.875 23.5 C8.19695312 24.17160156 7.51890625 24.84320313 6.8203125 25.53515625 C4.8792063 27.31877647 2.8880399 28.89868653 0.75 30.4375 C-5.39508385 27.66672559 -10.79994998 22.44380628 -15.25 17.4375 C-15.25 16.7775 -15.25 16.1175 -15.25 15.4375 C-15.91 15.4375 -16.57 15.4375 -17.25 15.4375 C-18.03279267 7.45301481 -18.03279267 7.45301481 -14.9375 3.4375 C-10.1723761 -0.10863871 -5.70731371 0.12557822 0 0 Z " fill="#F4E0DB" transform="translate(70.25,89.5625)"/>
<path d="M0 0 C2.7893858 2.381183 3.39039007 3.68083276 3.80078125 7.2734375 C3.93500496 11.4131794 3.93756687 13.58739301 1.6875 17.1875 C-2.16415935 20.81259115 -5.59308312 20.653306 -10.7265625 20.5859375 C-13.57363601 20.16749154 -14.6629704 19.80275929 -16.625 17.75 C-18.88190646 13.31401144 -19.26550686 10.06554041 -18.4375 5.1875 C-17.2046112 2.29021132 -16.2129988 0.79066573 -13.75 -1.125 C-8.48187402 -2.69119962 -4.76903473 -2.51458195 0 0 Z " fill="#FEF6F6" transform="translate(77.4375,45.8125)"/>
<path d="M0 0 C0.66 0.33 1.32 0.66 2 1 C2 10.57 2 20.14 2 30 C-7.10714286 23.16964286 -7.10714286 23.16964286 -10 20.25 C-10.5775 19.67765625 -11.155 19.1053125 -11.75 18.515625 C-13 17 -13 17 -13 15 C-13.66 15 -14.32 15 -15 15 C-15.78279267 7.01551481 -15.78279267 7.01551481 -12.6875 3 C-8.43147577 -0.16727385 -5.19457376 -0.18889359 0 0 Z " fill="#FEF4F4" transform="translate(68,90)"/>
<path d="M0 0 C2.46800047 1.15173355 4.04783565 2.04783565 6 4 C5.74889367 7.87122263 3.59791053 9.75045386 0.921875 12.37109375 C0.09042969 13.19287109 -0.74101563 14.01464844 -1.59765625 14.86132812 C-2.47292969 15.71146484 -3.34820312 16.56160156 -4.25 17.4375 C-5.10980469 18.28376953 -5.96960938 19.13003906 -6.85546875 20.00195312 C-8.50943238 21.62915771 -10.16745818 23.25224662 -11.83007812 24.87060547 C-13.57931621 26.58717326 -15.28794862 28.32961128 -16.984375 30.09765625 C-19 32 -19 32 -21 32 C-23.1875 30.25 -23.1875 30.25 -25 28 C-24.87300775 23.67399423 -21.56083007 21.18122459 -18.65234375 18.359375 C-17.85540855 17.56880707 -17.85540855 17.56880707 -17.04237366 16.76226807 C-15.34767175 15.08432813 -13.64282783 13.41713272 -11.9375 11.75 C-10.78512255 10.61267255 -9.63342148 9.47465934 -8.48242188 8.3359375 C-5.66272816 5.54928008 -2.83389412 2.77221208 0 0 Z " fill="#FEA8C4" transform="translate(101,18)"/>
<path d="M0 0 C7.06976744 1.17829457 7.06976744 1.17829457 10 4 C11.35569764 8.06709293 11.52216065 11.74812043 11 16 C9.4375 19 9.4375 19 7 21 C4.69 21.33 2.38 21.66 0 22 C0 14.74 0 7.48 0 0 Z " fill="#F4E2DD" transform="translate(70,44)"/>
<path d="M0 0 C4.44953329 2.02114188 7.3409448 5.00971373 10.75 8.4375 C11.65298828 9.31631836 11.65298828 9.31631836 12.57421875 10.21289062 C13.14269531 10.78072266 13.71117188 11.34855469 14.296875 11.93359375 C14.81604492 12.44978271 15.33521484 12.96597168 15.87011719 13.49780273 C17 15 17 15 17 18 C15.125 20.1875 15.125 20.1875 13 22 C12.34 22 11.68 22 11 22 C9.5546875 20.49609375 9.5546875 20.49609375 7.875 18.4375 C4.26340423 14.17201531 0.29141978 10.56689436 -4 7 C-3.30621489 3.73988358 -2.54106009 2.20961747 0 0 Z " fill="#FFBCD2" transform="translate(47,28)"/>
<path d="M0 0 C5.28 0 10.56 0 16 0 C16 2.64 16 5.28 16 8 C10.72 8 5.44 8 0 8 C0 5.36 0 2.72 0 0 Z " fill="#FFA7C4" transform="translate(108,51)"/>
<path d="M0 0 C5.28 0 10.56 0 16 0 C16 2.64 16 5.28 16 8 C10.72 8 5.44 8 0 8 C0 5.36 0 2.72 0 0 Z " fill="#FFBDD2" transform="translate(16,51)"/>
<path d="M0 0 C1.32 0 2.64 0 4 0 C4 5.61 4 11.22 4 17 C2.68 17 1.36 17 0 17 C0 11.39 0 5.78 0 0 Z " fill="#FFBCD2" transform="translate(66,0)"/>
<path d="M0 0 C2.97 0.33 5.94 0.66 9 1 C7 3 7 3 3.375 3.125 C2.26125 3.08375 1.1475 3.0425 0 3 C0 2.01 0 1.02 0 0 Z " fill="#785C66" transform="translate(81,0)"/>
<path d="" fill="#000000" transform="translate(0,0)"/>
<path d="" fill="#000000" transform="translate(0,0)"/>
<path d="" fill="#000000" transform="translate(0,0)"/>
<path d="" fill="#000000" transform="translate(0,0)"/>
<path d="" fill="#000000" transform="translate(0,0)"/>
<path d="" fill="#000000" transform="translate(0,0)"/>
<path d="" fill="#000000" transform="translate(0,0)"/>
<path d="" fill="#000000" transform="translate(0,0)"/>
<path d="" fill="#000000" transform="translate(0,0)"/>
<path d="" fill="#000000" transform="translate(0,0)"/>
<path d="" fill="#000000" transform="translate(0,0)"/>
<path d="" fill="#000000" transform="translate(0,0)"/>
<path d="" fill="#000000" transform="translate(0,0)"/>
<path d="" fill="#000000" transform="translate(0,0)"/>
<path d="" fill="#000000" transform="translate(0,0)"/>
<path d="" fill="#000000" transform="translate(0,0)"/>
<path d="" fill="#000000" transform="translate(0,0)"/>
<path d="" fill="#000000" transform="translate(0,0)"/>
<path d="" fill="#000000" transform="translate(0,0)"/>
<path d="" fill="#000000" transform="translate(0,0)"/>
<path d="" fill="#000000" transform="translate(0,0)"/>
<path d="" fill="#000000" transform="translate(0,0)"/>
<path d="" fill="#000000" transform="translate(0,0)"/>
<path d="" fill="#000000" transform="translate(0,0)"/>
<path d="" fill="#000000" transform="translate(0,0)"/>
<path d="" fill="#000000" transform="translate(0,0)"/>
<path d="" fill="#000000" transform="translate(0,0)"/>
<path d="" fill="#000000" transform="translate(0,0)"/>
<path d="" fill="#000000" transform="translate(0,0)"/>
<path d="" fill="#000000" transform="translate(0,0)"/>
<path d="" fill="#000000" transform="translate(0,0)"/>
<path d="" fill="#000000" transform="translate(0,0)"/>
<path d="" fill="#000000" transform="translate(0,0)"/>
<path d="" fill="#000000" transform="translate(0,0)"/>
<path d="" fill="#000000" transform="translate(0,0)"/>
<path d="" fill="#000000" transform="translate(0,0)"/>
<path d="" fill="#000000" transform="translate(0,0)"/>
<path d="" fill="#000000" transform="translate(0,0)"/>
<path d="" fill="#000000" transform="translate(0,0)"/>
<path d="" fill="#000000" transform="translate(0,0)"/>
<path d="" fill="#000000" transform="translate(0,0)"/>
<path d="" fill="#000000" transform="translate(0,0)"/>
<path d="" fill="#000000" transform="translate(0,0)"/>
<path d="" fill="#000000" transform="translate(0,0)"/>
<path d="" fill="#000000" transform="translate(0,0)"/>
<path d="" fill="#000000" transform="translate(0,0)"/>
<path d="" fill="#000000" transform="translate(0,0)"/>
<path d="" fill="#000000" transform="translate(0,0)"/>
<path d="" fill="#000000" transform="translate(0,0)"/>
<path d="" fill="#000000" transform="translate(0,0)"/>
<path d="" fill="#000000" transform="translate(0,0)"/>
<path d="" fill="#000000" transform="translate(0,0)"/>
<path d="" fill="#000000" transform="translate(0,0)"/>
<path d="" fill="#000000" transform="translate(0,0)"/>
<path d="" fill="#000000" transform="translate(0,0)"/>
<path d="" fill="#000000" transform="translate(0,0)"/>
<path d="" fill="#000000" transform="translate(0,0)"/>
<path d="" fill="#000000" transform="translate(0,0)"/>
<path d="" fill="#000000" transform="translate(0,0)"/>
<path d="" fill="#000000" transform="translate(0,0)"/>
<path d="" fill="#000000" transform="translate(0,0)"/>
<path d="" fill="#000000" transform="translate(0,0)"/>
<path d="" fill="#000000" transform="translate(0,0)"/>
<path d="" fill="#000000" transform="translate(0,0)"/>
<path d="" fill="#000000" transform="translate(0,0)"/>
<path d="" fill="#000000" transform="translate(0,0)"/>
<path d="" fill="#000000" transform="translate(0,0)"/>
<path d="" fill="#000000" transform="translate(0,0)"/>
<path d="" fill="#000000" transform="translate(0,0)"/>
<path d="" fill="#000000" transform="translate(0,0)"/>
<path d="" fill="#000000" transform="translate(0,0)"/>
<path d="" fill="#000000" transform="translate(0,0)"/>
<path d="" fill="#000000" transform="translate(0,0)"/>
<path d="" fill="#000000" transform="translate(0,0)"/>
<path d="" fill="#000000" transform="translate(0,0)"/>
</svg>
