<?xml version="1.0" encoding="UTF-8"?>
<svg version="1.1" xmlns="http://www.w3.org/2000/svg" width="140" height="140">
<path d="M0 0 C0.83587646 -0.00095673 1.67175293 -0.00191345 2.53295898 -0.00289917 C4.30159582 -0.00358018 6.07023515 -0.00173141 7.83886719 0.00244141 C10.55148921 0.00779079 13.26394565 0.00249375 15.9765625 -0.00390625 C17.6927087 -0.00324545 19.4088548 -0.00196426 21.125 0 C22.3469104 -0.00303635 22.3469104 -0.00303635 23.59350586 -0.00613403 C29.33258072 0.01785286 29.33258072 0.01785286 31.5625 1.1328125 C31.5625 1.7928125 31.5625 2.4528125 31.5625 3.1328125 C32.87541016 3.30683594 32.87541016 3.30683594 34.21484375 3.484375 C49.19800022 6.38659667 61.87946857 18.79236695 70.4609375 30.83984375 C73.94903859 36.30539993 77.5625 42.51039718 77.5625 49.1328125 C78.2225 49.1328125 78.8825 49.1328125 79.5625 49.1328125 C83.98793325 63.55686685 82.74748685 86.62275042 76.16650391 100.10205078 C75.03958606 102.17085584 73.83715876 104.15207308 72.5625 106.1328125 C72.16095703 106.77009277 71.75941406 107.40737305 71.34570312 108.06396484 C62.84273056 121.08372181 49.73702472 132.86807679 34.5625 137.1328125 C33.5725 137.1328125 32.5825 137.1328125 31.5625 137.1328125 C31.5625 137.7928125 31.5625 138.4528125 31.5625 139.1328125 C27.5714416 140.45181342 23.51913333 140.27667574 19.3671875 140.265625 C18.57853302 140.26658173 17.78987854 140.26753845 16.97732544 140.26852417 C15.31479818 140.26920323 13.65226823 140.26736806 11.98974609 140.26318359 C9.43971853 140.25781717 6.88986595 140.26314514 4.33984375 140.26953125 C2.72395794 140.2688707 1.10807225 140.26759002 -0.5078125 140.265625 C-1.6546904 140.26866135 -1.6546904 140.26866135 -2.82473755 140.27175903 C-8.20755909 140.24778295 -8.20755909 140.24778295 -10.4375 139.1328125 C-10.4375 138.4728125 -10.4375 137.8128125 -10.4375 137.1328125 C-11.31277344 137.01679688 -12.18804687 136.90078125 -13.08984375 136.78125 C-28.07300022 133.87902833 -40.75446857 121.47325805 -49.3359375 109.42578125 C-52.82403859 103.96022507 -56.4375 97.75522782 -56.4375 91.1328125 C-57.0975 91.1328125 -57.7575 91.1328125 -58.4375 91.1328125 C-62.86636939 76.69755854 -61.61030907 53.66431871 -55.0480957 40.16796875 C-53.92181683 38.09444447 -52.71969018 36.11328935 -51.4375 34.1328125 C-51.02000488 33.48489746 -50.60250977 32.83698242 -50.17236328 32.16943359 C-41.87494078 19.78124712 -30.51251269 9.47500919 -16.4375 4.1328125 C-14.44726137 3.74543505 -12.44784099 3.39670682 -10.4375 3.1328125 C-10.4375 2.4728125 -10.4375 1.8128125 -10.4375 1.1328125 C-7.17636087 -0.49775707 -3.58270683 -0.00890273 0 0 Z " fill="#FFF787" transform="translate(59.4375,-0.1328125)"/>
<path d="M0 0 C0.83587646 -0.00095673 1.67175293 -0.00191345 2.53295898 -0.00289917 C4.30159582 -0.00358018 6.07023515 -0.00173141 7.83886719 0.00244141 C10.55148921 0.00779079 13.26394565 0.00249375 15.9765625 -0.00390625 C17.6927087 -0.00324545 19.4088548 -0.00196426 21.125 0 C22.3469104 -0.00303635 22.3469104 -0.00303635 23.59350586 -0.00613403 C29.33258072 0.01785286 29.33258072 0.01785286 31.5625 1.1328125 C31.5625 1.7928125 31.5625 2.4528125 31.5625 3.1328125 C32.87541016 3.30683594 32.87541016 3.30683594 34.21484375 3.484375 C49.19800022 6.38659667 61.87946857 18.79236695 70.4609375 30.83984375 C73.94903859 36.30539993 77.5625 42.51039718 77.5625 49.1328125 C78.2225 49.1328125 78.8825 49.1328125 79.5625 49.1328125 C83.98793325 63.55686685 82.74748685 86.62275042 76.16650391 100.10205078 C75.03958606 102.17085584 73.83715876 104.15207308 72.5625 106.1328125 C72.16095703 106.77009277 71.75941406 107.40737305 71.34570312 108.06396484 C62.84273056 121.08372181 49.73702472 132.86807679 34.5625 137.1328125 C33.5725 137.1328125 32.5825 137.1328125 31.5625 137.1328125 C31.5625 137.7928125 31.5625 138.4528125 31.5625 139.1328125 C27.5714416 140.45181342 23.51913333 140.27667574 19.3671875 140.265625 C18.57853302 140.26658173 17.78987854 140.26753845 16.97732544 140.26852417 C15.31479818 140.26920323 13.65226823 140.26736806 11.98974609 140.26318359 C9.43971853 140.25781717 6.88986595 140.26314514 4.33984375 140.26953125 C2.72395794 140.2688707 1.10807225 140.26759002 -0.5078125 140.265625 C-1.6546904 140.26866135 -1.6546904 140.26866135 -2.82473755 140.27175903 C-8.20755909 140.24778295 -8.20755909 140.24778295 -10.4375 139.1328125 C-10.4375 138.4728125 -10.4375 137.8128125 -10.4375 137.1328125 C-11.31277344 137.01679688 -12.18804687 136.90078125 -13.08984375 136.78125 C-28.07300022 133.87902833 -40.75446857 121.47325805 -49.3359375 109.42578125 C-52.82403859 103.96022507 -56.4375 97.75522782 -56.4375 91.1328125 C-57.0975 91.1328125 -57.7575 91.1328125 -58.4375 91.1328125 C-62.86636939 76.69755854 -61.61030907 53.66431871 -55.0480957 40.16796875 C-53.92181683 38.09444447 -52.71969018 36.11328935 -51.4375 34.1328125 C-51.02000488 33.48489746 -50.60250977 32.83698242 -50.17236328 32.16943359 C-41.87494078 19.78124712 -30.51251269 9.47500919 -16.4375 4.1328125 C-14.44726137 3.74543505 -12.44784099 3.39670682 -10.4375 3.1328125 C-10.4375 2.4728125 -10.4375 1.8128125 -10.4375 1.1328125 C-7.17636087 -0.49775707 -3.58270683 -0.00890273 0 0 Z M-30.4375 33.1328125 C-38.8496483 44.34206951 -44.63749733 55.17491475 -44.625 69.3828125 C-44.62564453 70.13554443 -44.62628906 70.88827637 -44.62695312 71.66381836 C-44.57555856 77.07484872 -43.9551843 81.91577272 -42.4375 87.1328125 C-41.7775 87.1328125 -41.1175 87.1328125 -40.4375 87.1328125 C-40.28667969 88.46699219 -40.28667969 88.46699219 -40.1328125 89.828125 C-39.00418946 95.19225472 -35.74256784 98.86073082 -32.4375 103.1328125 C-31.88707031 103.85082031 -31.33664063 104.56882812 -30.76953125 105.30859375 C-23.44246772 114.27162871 -11.0502607 123.17985274 0.5625 125.1328125 C17.58166161 126.54068032 32.176226 123.1538426 45.5625 112.1328125 C46.39394531 111.50503906 47.22539063 110.87726563 48.08203125 110.23046875 C56.77953954 102.87525308 64.75315978 89.58813896 65.73950195 78.06494141 C66.30176152 58.32223144 66.30176152 58.32223144 57.5625 41.1328125 C56.71511188 39.6100434 55.90005101 38.06864186 55.125 36.5078125 C53.10903203 32.76121356 51.48101682 30.98895204 47.5625 29.1328125 C46.5625 28.1328125 45.5625 27.1328125 44.5625 26.1328125 C43.9025 26.1328125 43.2425 26.1328125 42.5625 26.1328125 C42.5625 25.4728125 42.5625 24.8128125 42.5625 24.1328125 C39.19566085 21.70120645 37.82899636 21.1328125 33.5625 21.1328125 C33.5625 20.1428125 33.5625 19.1528125 33.5625 18.1328125 C26.53525386 14.83879087 18.7485405 14.93203633 11.125 14.8828125 C9.93293945 14.851875 9.93293945 14.851875 8.71679688 14.8203125 C-5.34210619 14.72879808 -21.31091657 22.54188919 -30.4375 33.1328125 Z " fill="#FAB068" transform="translate(59.4375,-0.1328125)"/>
<path d="M0 0 C0 0.66 0 1.32 0 2 C0.928125 2.4640625 0.928125 2.4640625 1.875 2.9375 C3.25 3.625 4.625 4.3125 6 5 C6 6.65 6 8.3 6 10 C6.721875 10.04125 7.44375 10.0825 8.1875 10.125 C12.30925447 11.40732361 13.53677499 13.48110713 16 17 C16 17.99 16 18.98 16 20 C16.66 20 17.32 20 18 20 C21.1644091 27.51547161 20.90644521 35.28305147 18.03125 42.84375 C14.0207422 51.22935721 7.17705034 57.79496004 -1.375 61.4375 C-10.48707233 62.85144226 -18.57602838 62.86492986 -26.26953125 57.3828125 C-30.32114974 54.07623769 -30.32114974 54.07623769 -32 52 C-32 50.68 -32 49.36 -32 48 C-32.74894531 48.09539062 -33.49789062 48.19078125 -34.26953125 48.2890625 C-37 48 -37 48 -38.94921875 46.0234375 C-44.72975789 37.21623404 -47.086023 30.65402306 -46 20 C-43.67900885 11.11908179 -37.23656266 3.92703446 -29.66796875 -1.03515625 C-19.92440267 -6.67136426 -9.75450474 -4.22632314 0 0 Z " fill="#FFD951" transform="translate(83,41)"/>
<path d="M0 0 C1.08410156 0.25394531 2.16820312 0.50789063 3.28515625 0.76953125 C7.50867894 2.16848987 10.82397125 4.03722558 14.5 6.5 C15.15782471 6.93997314 15.81564941 7.37994629 16.4934082 7.83325195 C22.0656029 11.73164056 25.67203402 16.05792177 29 22 C29.41636719 22.62777344 29.83273438 23.25554688 30.26171875 23.90234375 C33.10484471 28.30170707 33.58216854 31.90245617 34 37 C34.309375 37.99 34.309375 37.99 34.625 39 C36.36932435 48.30306319 31.01926186 59.13385556 26.25 66.8125 C19.52846868 76.08006591 11.05780274 81.89883526 0 85 C-12.28553466 86.92514358 -23.62975031 84.25482751 -33.875 77.25 C-42.95421284 70.19564758 -48.27096518 61.1019459 -51 50 C-52.25146713 37.3140753 -50.31075662 27.55195199 -42.625 17.125 C-37.89974682 11.46699619 -32.90142406 6.82330984 -26 4 C-25.01 4 -24.02 4 -23 4 C-23 3.34 -23 2.68 -23 2 C-7.7006218 -1.85204828 -7.7006218 -1.85204828 0 0 Z M-37.875 24.5625 C-42.29683438 31.32180239 -42.82828131 38.06486056 -42 46 C-41.0641052 49.27816125 -39.72379467 52.06731036 -38 55 C-37.60296875 55.69609375 -37.2059375 56.3921875 -36.796875 57.109375 C-35.4685479 59.32151192 -35.4685479 59.32151192 -33 62 C-30.28528995 62.58768383 -30.28528995 62.58768383 -28 62 C-27.979375 62.70125 -27.95875 63.4025 -27.9375 64.125 C-26.34449162 69.01022569 -22.52015794 71.57810036 -18.14453125 74.046875 C-10.69313405 77.30398058 -1.8114342 77.12717131 5.73828125 74.2265625 C14.77808964 69.32414482 20.62342629 61.75433345 23.609375 52.01171875 C24.8008631 45.87555502 24.42889753 39.76863163 22 34 C21.34 34 20.68 34 20 34 C19.938125 33.278125 19.87625 32.55625 19.8125 31.8125 C18.73077566 28.06806959 16.99519213 26.43794709 14 24 C12.68 24 11.36 24 10 24 C10.0825 23.236875 10.165 22.47375 10.25 21.6875 C10.28317959 18.87988598 10.28317959 18.87988598 8.125 17.1875 C6.1147343 15.83739288 6.1147343 15.83739288 4 16 C4 15.34 4 14.68 4 14 C-12.83515726 6.70585063 -26.6377874 9.71097925 -37.875 24.5625 Z " fill="#FFFCD4" transform="translate(79,27)"/>
<path d="M0 0 C4.94273735 1.74136439 8.09887549 6.34289556 10.6171875 10.8046875 C11.78938264 13.41914234 12.55195078 15.96040466 13.1015625 18.76953125 C13.2459375 19.47078125 13.3903125 20.17203125 13.5390625 20.89453125 C14.1990625 21.22453125 14.8590625 21.55453125 15.5390625 21.89453125 C15.22471659 29.43883311 11.84117913 33.83812566 6.38671875 38.88671875 C-1.34327987 45.25570907 -8.5714522 46.7805834 -18.4609375 45.89453125 C-24.84526085 44.6493618 -30.37783927 40.94410751 -34.4609375 35.89453125 C-34.4609375 34.57453125 -34.4609375 33.25453125 -34.4609375 31.89453125 C-36.1109375 31.89453125 -37.7609375 31.89453125 -39.4609375 31.89453125 C-39.4609375 31.23453125 -39.4609375 30.57453125 -39.4609375 29.89453125 C-36.8209375 29.89453125 -34.1809375 29.89453125 -31.4609375 29.89453125 C-31.3784375 29.29640625 -31.2959375 28.69828125 -31.2109375 28.08203125 C-30.24516971 25.26520852 -28.97225183 24.41653993 -26.4609375 22.89453125 C-25.8009375 22.89453125 -25.1409375 22.89453125 -24.4609375 22.89453125 C-24.25855469 22.35441406 -24.05617188 21.81429687 -23.84765625 21.2578125 C-21.8948047 17.92971339 -19.12975705 15.61649508 -16.2734375 13.08203125 C-11.95153993 9.20430235 -7.81148407 5.32220646 -4.0234375 0.90625 C-2.4609375 -0.10546875 -2.4609375 -0.10546875 0 0 Z " fill="#FFD348" transform="translate(85.4609375,57.10546875)"/>
<path d="M0 0 C0 0.66 0 1.32 0 2 C0.61875 2.309375 1.2375 2.61875 1.875 2.9375 C3.25 3.625 4.625 4.3125 6 5 C6 6.65 6 8.3 6 10 C6.721875 10.04125 7.44375 10.0825 8.1875 10.125 C12.30925447 11.40732361 13.53677499 13.48110713 16 17 C16 17.99 16 18.98 16 20 C16.66 20 17.32 20 18 20 C20.21224907 25.25409155 20.63150362 30.37218835 20 36 C18.984375 38.3046875 18.984375 38.3046875 18 40 C17.34 39.34 16.68 38.68 16 38 C15.67 38 15.34 38 15 38 C14.79375 36.700625 14.5875 35.40125 14.375 34.0625 C12.91856863 27.42997442 9.10317656 21.49301414 4 17 C3.319375 16.87625 2.63875 16.7525 1.9375 16.625 C1.298125 16.41875 0.65875 16.2125 0 16 C-0.28875 15.2575 -0.5775 14.515 -0.875 13.75 C-2.41183644 9.99328871 -4.80262065 8.43000831 -8 6 C-8.61230469 5.47792969 -9.22460938 4.95585938 -9.85546875 4.41796875 C-12.42154944 2.72127059 -14.40429216 2.37081541 -17.4375 1.9375 C-21.24397571 1.3816169 -24.46955471 0.54416935 -28 -1 C-19.0896408 -6.94023947 -9.14061462 -3.96034366 0 0 Z " fill="#FFF779" transform="translate(83,41)"/>
<path d="M0 0 C2.48484021 0.81897355 3.53998433 1.5798185 5.0859375 3.6875 C5.76388398 6.75520781 5.67541688 9.60663605 5.0859375 12.6875 C2.54122528 15.75612356 0.99651769 16.53573663 -2.9140625 17.1875 C-6.60609666 16.57216097 -8.25423118 15.27133614 -10.9140625 12.6875 C-12.35837105 9.79888291 -12.29094756 7.89102299 -11.9140625 4.6875 C-8.49302289 -0.49923747 -5.7301532 -0.78227347 0 0 Z " fill="#FFA46D" transform="translate(84.9140625,74.3125)"/>
<path d="M0 0 C1.99817211 4.12122998 2.58066416 7.43763877 2 12 C-0.55703656 14.93307135 -2.16582071 15.86097012 -6 16.5 C-9.69203416 15.88466097 -11.34016868 14.58383614 -14 12 C-15.44430855 9.11138291 -15.37688506 7.20352299 -15 4 C-10.98471559 -2.29061224 -6.56482751 -1.28747103 0 0 Z " fill="#FFAB6F" transform="translate(64,51)"/>
<path d="M0 0 C5 5 5 5 5 9 C5.66 9 6.32 9 7 9 C9.21224907 14.25409155 9.63150362 19.37218835 9 25 C7.984375 27.3046875 7.984375 27.3046875 7 29 C6.34 28.34 5.68 27.68 5 27 C4.67 27 4.34 27 4 27 C3.79375 25.700625 3.5875 24.40125 3.375 23.0625 C1.91366379 16.40763798 -1.90806857 10.52769038 -7 6 C-9.10332891 5.28552357 -9.10332891 5.28552357 -11 5 C-10 2 -10 2 -7.75 0.8125 C-2.98165138 -0.59633028 -2.98165138 -0.59633028 0 0 Z " fill="#FFEE6D" transform="translate(94,52)"/>
<path d="M0 0 C3 3.75 3 3.75 3 6 C3.7425 6.268125 4.485 6.53625 5.25 6.8125 C8 8 8 8 9.84375 9.4375 C12.22785492 11.16511226 14.50378147 12.13960082 17.25 13.1875 C18.14203125 13.53167969 19.0340625 13.87585938 19.953125 14.23046875 C20.62859375 14.48441406 21.3040625 14.73835938 22 15 C21.01 16.485 21.01 16.485 20 18 C13.42340248 19.2171895 7.43784 18.87217274 1.8125 15.125 C-0.28618408 13.51302373 -2.12799747 11.87200253 -4 10 C-4.375 7.125 -4.375 7.125 -4 4 C-2 1.625 -2 1.625 0 0 Z " fill="#FFBA2A" transform="translate(56,84)"/>
<path d="M0 0 C0.66 0 1.32 0 2 0 C2.309375 1.11375 2.61875 2.2275 2.9375 3.375 C3.65970328 5.35503671 3.65970328 5.35503671 5 7 C7.94237867 8.21555714 10.84371486 8.67576945 14 9 C12.125 12.875 12.125 12.875 11 14 C7.14696032 14.43784542 5.45877878 14.30585252 2.1875 12.125 C-0.51135702 9.50325318 -0.96815192 8.76435388 -1.125 5 C-1 2 -1 2 0 0 Z " fill="#FF8267" transform="translate(74,77)"/>
<path d="M0 0 C0.66 0 1.32 0 2 0 C2.556875 1.423125 2.556875 1.423125 3.125 2.875 C5.42028763 6.70047939 6.88197912 6.7466893 11 8 C11.9375 10.0625 11.9375 10.0625 12 12 C11 13 11 13 8.25 13.3125 C4.28712279 12.93145411 2.8176055 11.73710248 0 9 C-1.36623674 6.26752652 -1.128426 4.01801098 -1 1 C-0.67 0.67 -0.34 0.34 0 0 Z " fill="#FF8A69" transform="translate(50,54)"/>
<path d="M0 0 C1.95903745 0.47627975 3.91721097 0.95611423 5.875 1.4375 C6.96554688 1.70433594 8.05609375 1.97117187 9.1796875 2.24609375 C12 3 12 3 14 4 C17.34813084 4.03083805 20.68440413 3.93240033 24.03125 3.83984375 C27 4 27 4 29 6 C18.60510406 6.41167905 9.57565812 6.72455379 0 2 C0 1.34 0 0.68 0 0 Z " fill="#FFE557" transform="translate(49,119)"/>
<path d="M0 0 C0.66 0.33 1.32 0.66 2 1 C-0.44362828 3.95807634 -2.25746599 4.44712566 -6 5 C-7.93651019 5.06533435 -9.87502861 5.08584303 -11.8125 5.0625 C-13.27623047 5.04896484 -13.27623047 5.04896484 -14.76953125 5.03515625 C-15.87361328 5.01775391 -15.87361328 5.01775391 -17 5 C-17 4.67 -17 4.34 -17 4 C-16.443125 3.96261719 -15.88625 3.92523438 -15.3125 3.88671875 C-11.12220232 3.52573027 -7.47996901 2.94917562 -3.5625 1.375 C-2.386875 0.92125 -1.21125 0.4675 0 0 Z " fill="#FFD25B" transform="translate(84,98)"/>
<path d="M0 0 C2.64 0 5.28 0 8 0 C8.33 0.66 8.66 1.32 9 2 C5.92677456 2.91058531 3.19902639 3.08886184 0 3 C0 2.01 0 1.02 0 0 Z " fill="#945846" transform="translate(82,137)"/>
<path d="M0 0 C0.99 0 1.98 0 3 0 C2.67 2.64 2.34 5.28 2 8 C1.01 7.67 0.02 7.34 -1 7 C-0.67 4.69 -0.34 2.38 0 0 Z " fill="#B39B4D" transform="translate(137,82)"/>
<path d="M0 0 C0.94875 0.350625 1.8975 0.70125 2.875 1.0625 C-0.21309695 2.82712683 -1.35812136 3.0625 -5.125 3.0625 C-5.125 2.0725 -5.125 1.0825 -5.125 0.0625 C-3.125 -0.9375 -3.125 -0.9375 0 0 Z " fill="#B49F56" transform="translate(54.125,0.9375)"/>
<path d="M0 0 C0.99 0.495 0.99 0.495 2 1 C1.67 1.66 1.34 2.32 1 3 C0.67 2.01 0.34 1.02 0 0 Z " fill="#000000" transform="translate(28,128)"/>
<path d="M0 0 C0.99 0.495 0.99 0.495 2 1 C1.67 1.66 1.34 2.32 1 3 C0.67 2.01 0.34 1.02 0 0 Z " fill="#000000" transform="translate(110,9)"/>
<path d="" fill="#000000" transform="translate(0,0)"/>
<path d="" fill="#000000" transform="translate(0,0)"/>
<path d="" fill="#000000" transform="translate(0,0)"/>
<path d="" fill="#000000" transform="translate(0,0)"/>
<path d="" fill="#000000" transform="translate(0,0)"/>
<path d="" fill="#000000" transform="translate(0,0)"/>
<path d="" fill="#000000" transform="translate(0,0)"/>
<path d="" fill="#000000" transform="translate(0,0)"/>
<path d="" fill="#000000" transform="translate(0,0)"/>
<path d="" fill="#000000" transform="translate(0,0)"/>
<path d="" fill="#000000" transform="translate(0,0)"/>
<path d="" fill="#000000" transform="translate(0,0)"/>
<path d="" fill="#000000" transform="translate(0,0)"/>
<path d="" fill="#000000" transform="translate(0,0)"/>
<path d="" fill="#000000" transform="translate(0,0)"/>
<path d="" fill="#000000" transform="translate(0,0)"/>
<path d="" fill="#000000" transform="translate(0,0)"/>
<path d="" fill="#000000" transform="translate(0,0)"/>
<path d="" fill="#000000" transform="translate(0,0)"/>
<path d="" fill="#000000" transform="translate(0,0)"/>
<path d="" fill="#000000" transform="translate(0,0)"/>
<path d="" fill="#000000" transform="translate(0,0)"/>
<path d="" fill="#000000" transform="translate(0,0)"/>
<path d="" fill="#000000" transform="translate(0,0)"/>
<path d="" fill="#000000" transform="translate(0,0)"/>
<path d="" fill="#000000" transform="translate(0,0)"/>
<path d="" fill="#000000" transform="translate(0,0)"/>
<path d="" fill="#000000" transform="translate(0,0)"/>
<path d="" fill="#000000" transform="translate(0,0)"/>
<path d="" fill="#000000" transform="translate(0,0)"/>
<path d="" fill="#000000" transform="translate(0,0)"/>
<path d="" fill="#000000" transform="translate(0,0)"/>
<path d="" fill="#000000" transform="translate(0,0)"/>
<path d="" fill="#000000" transform="translate(0,0)"/>
<path d="" fill="#000000" transform="translate(0,0)"/>
<path d="" fill="#000000" transform="translate(0,0)"/>
<path d="" fill="#000000" transform="translate(0,0)"/>
<path d="" fill="#000000" transform="translate(0,0)"/>
<path d="" fill="#000000" transform="translate(0,0)"/>
<path d="" fill="#000000" transform="translate(0,0)"/>
<path d="" fill="#000000" transform="translate(0,0)"/>
<path d="" fill="#000000" transform="translate(0,0)"/>
<path d="" fill="#000000" transform="translate(0,0)"/>
<path d="" fill="#000000" transform="translate(0,0)"/>
<path d="" fill="#000000" transform="translate(0,0)"/>
<path d="" fill="#000000" transform="translate(0,0)"/>
<path d="" fill="#000000" transform="translate(0,0)"/>
<path d="" fill="#000000" transform="translate(0,0)"/>
<path d="" fill="#000000" transform="translate(0,0)"/>
<path d="" fill="#000000" transform="translate(0,0)"/>
<path d="" fill="#000000" transform="translate(0,0)"/>
<path d="" fill="#000000" transform="translate(0,0)"/>
<path d="" fill="#000000" transform="translate(0,0)"/>
<path d="" fill="#000000" transform="translate(0,0)"/>
<path d="" fill="#000000" transform="translate(0,0)"/>
<path d="" fill="#000000" transform="translate(0,0)"/>
<path d="" fill="#000000" transform="translate(0,0)"/>
<path d="" fill="#000000" transform="translate(0,0)"/>
<path d="" fill="#000000" transform="translate(0,0)"/>
<path d="" fill="#000000" transform="translate(0,0)"/>
<path d="" fill="#000000" transform="translate(0,0)"/>
<path d="" fill="#000000" transform="translate(0,0)"/>
<path d="" fill="#000000" transform="translate(0,0)"/>
<path d="" fill="#000000" transform="translate(0,0)"/>
<path d="" fill="#000000" transform="translate(0,0)"/>
<path d="" fill="#000000" transform="translate(0,0)"/>
<path d="" fill="#000000" transform="translate(0,0)"/>
<path d="" fill="#000000" transform="translate(0,0)"/>
<path d="" fill="#000000" transform="translate(0,0)"/>
<path d="" fill="#000000" transform="translate(0,0)"/>
<path d="" fill="#000000" transform="translate(0,0)"/>
<path d="" fill="#000000" transform="translate(0,0)"/>
<path d="" fill="#000000" transform="translate(0,0)"/>
<path d="" fill="#000000" transform="translate(0,0)"/>
<path d="" fill="#000000" transform="translate(0,0)"/>
<path d="" fill="#000000" transform="translate(0,0)"/>
<path d="" fill="#000000" transform="translate(0,0)"/>
</svg>
