<svg width="28" height="28" viewBox="0 0 28 28" fill="none" xmlns="http://www.w3.org/2000/svg">
    <path
        d="M14 28C6.26801 28 0 21.7319 0 14C0 6.26801 6.26801 0 14 0C21.7319 0 28 6.26801 28 14C28 21.7319 21.7319 28 14 28ZM8.4 15.4C8.4 18.4927 10.9072 21 14 21C17.0927 21 19.6 18.4927 19.6 15.4H8.4ZM8.4 12.6C9.5598 12.6 10.5 11.6598 10.5 10.5C10.5 9.3402 9.5598 8.4 8.4 8.4C7.2402 8.4 6.3 9.3402 6.3 10.5C6.3 11.6598 7.2402 12.6 8.4 12.6ZM19.6 12.6C20.7598 12.6 21.7 11.6598 21.7 10.5C21.7 9.3402 20.7598 8.4 19.6 8.4C18.4402 8.4 17.5 9.3402 17.5 10.5C17.5 11.6598 18.4402 12.6 19.6 12.6Z"
        fill="white" />
</svg>
