<svg width="14" height="14" viewBox="0 0 14 14" fill="none" xmlns="http://www.w3.org/2000/svg">
<path d="M5.00065 0.666504V1.99984H9.00065V0.666504H10.334V1.99984H13.0007C13.3689 1.99984 13.6673 2.29832 13.6673 2.6665V13.3332C13.6673 13.7014 13.3689 13.9998 13.0007 13.9998H1.00065C0.632464 13.9998 0.333984 13.7014 0.333984 13.3332V2.6665C0.333984 2.29832 0.632464 1.99984 1.00065 1.99984H3.66732V0.666504H5.00065ZM12.334 7.33317H1.66732V12.6665H12.334V7.33317ZM4.33398 8.6665V9.99984H3.00065V8.6665H4.33398ZM7.66732 8.6665V9.99984H6.33398V8.6665H7.66732ZM11.0007 8.6665V9.99984H9.66732V8.6665H11.0007ZM3.66732 3.33317H1.66732V5.99984H12.334V3.33317H10.334V4.6665H9.00065V3.33317H5.00065V4.6665H3.66732V3.33317Z" fill="url(#paint0_linear_1916_394)"/>
<defs>
<linearGradient id="paint0_linear_1916_394" x1="7.00065" y1="0.666504" x2="7.00065" y2="13.9998" gradientUnits="userSpaceOnUse">
<stop stop-color="#B579FF"/>
<stop offset="1" stop-color="#A95BFF"/>
</linearGradient>
</defs>
</svg>
