<?xml version="1.0" encoding="UTF-8"?>
<svg version="1.1" xmlns="http://www.w3.org/2000/svg" width="140" height="140">
<path d="M0 0 C1.41043579 0.00628418 1.41043579 0.00628418 2.84936523 0.01269531 C14.76652815 0.20280364 25.74236784 2.41287891 36.95703125 6.54296875 C39.37478143 7.46777357 39.37478143 7.46777357 42.3125 7.3125 C42.3125 7.9725 42.3125 8.6325 42.3125 9.3125 C43.3025 9.6425 44.2925 9.9725 45.3125 10.3125 C45.3125 10.9725 45.3125 11.6325 45.3125 12.3125 C46.04726563 12.57160156 46.78203125 12.83070312 47.5390625 13.09765625 C56.18315751 16.88401336 62.17684198 25.08107776 66.3125 33.3125 C66.3125 34.3025 66.3125 35.2925 66.3125 36.3125 C67.7975 36.8075 67.7975 36.8075 69.3125 37.3125 C70.26171875 39.59765625 70.26171875 39.59765625 71 42.375 C71.25136719 43.29410156 71.50273438 44.21320313 71.76171875 45.16015625 C71.94347656 45.87042969 72.12523438 46.58070312 72.3125 47.3125 C72.68761719 46.79300781 73.06273438 46.27351563 73.44921875 45.73828125 C80.97673358 35.48038321 80.97673358 35.48038321 85.3125 33.3125 C85.8075 32.3225 85.8075 32.3225 86.3125 31.3125 C88.64488334 30.53503889 90.93265341 29.91467955 93.3125 29.3125 C94.14910156 29.06242187 94.98570313 28.81234375 95.84765625 28.5546875 C101.96836159 26.82034734 107.92238707 25.91934878 114.25 25.5 C115.3325708 25.42060181 115.3325708 25.42060181 116.43701172 25.33959961 C120.64727522 25.11979258 123.48925148 25.63201918 127.3125 27.3125 C128.52764575 46.10467703 127.86756126 59.20278694 116.0625 74.1640625 C106.95384154 84.15105589 94.38275192 87.89357147 81.15454102 88.60009766 C77.4961947 88.72463421 73.84170621 88.73472543 70.18164062 88.70361328 C67.94598955 88.68756096 65.71215861 88.7035444 63.4765625 88.72265625 C49.1546597 88.74358594 35.76937608 86.40262005 22.3125 81.3125 C21.42691406 80.99023438 20.54132812 80.66796875 19.62890625 80.3359375 C16.48736162 78.94793633 14.70559975 76.76257831 12.3125 74.3125 C11.20999762 73.53407613 10.0931008 72.77575819 8.96484375 72.03515625 C5.40395592 69.52216292 2.75530044 66.61576926 0.25 63.0625 C-0.17410156 62.46695313 -0.59820312 61.87140625 -1.03515625 61.2578125 C-5.80577307 54.18915465 -8.23188785 46.40938332 -10.6875 38.3125 C-11.03514404 37.38985352 -11.38278809 36.46720703 -11.7409668 35.51660156 C-13.3235044 30.15956687 -13.02084702 24.69256084 -13.00317383 19.15234375 C-12.99998735 17.05417149 -13.02360706 14.95737604 -13.04882812 12.859375 C-13.05109883 11.52604344 -13.05180568 10.1927081 -13.05078125 8.859375 C-13.05376221 7.65120117 -13.05674316 6.44302734 -13.05981445 5.19824219 C-12.93695068 4.24594727 -12.81408691 3.29365234 -12.6875 2.3125 C-8.47638867 -0.49490755 -4.95548427 -0.02970757 0 0 Z " fill="#BDF731" transform="translate(12.6875,25.6875)"/>
<path d="M0 0 C1.21514575 18.79217703 0.55506126 31.89028694 -11.25 46.8515625 C-19.87399028 56.30715184 -31.59350282 60.26242478 -44.17526245 61.1541748 C-49.57590936 61.35926359 -54.97267578 61.27616325 -60.375 61.1875 C-61.99738322 61.1724058 -63.61978024 61.15872588 -65.2421875 61.14648438 C-69.16180816 61.11389967 -73.08074513 61.06238814 -77 61 C-77 60.67 -77 60.34 -77 60 C-68.585 59.505 -68.585 59.505 -60 59 C-61.145896 57.8855249 -62.29179199 56.7710498 -63.47241211 55.62280273 C-67.72361813 51.48027378 -71.95487292 47.3178557 -76.18041992 43.14916992 C-78.01130603 41.3484392 -79.84754346 39.55313251 -81.68920898 37.76342773 C-84.33705688 35.18843673 -86.96498402 32.59448873 -89.58984375 29.99609375 C-90.41588608 29.20101913 -91.24192841 28.40594452 -92.09300232 27.58677673 C-98.38657721 21.29695116 -98.38657721 21.29695116 -99.08813477 17.00024414 C-99 14 -99 14 -98 13 C-95.03230112 12.65591671 -93.51949685 12.63922454 -91.0320282 14.36669922 C-90.40359512 15.00623535 -89.77516205 15.64577148 -89.12768555 16.3046875 C-88.40731613 17.02543457 -87.68694672 17.74618164 -86.94474792 18.48876953 C-86.1830983 19.27622559 -85.42144867 20.06368164 -84.63671875 20.875 C-83.84473587 21.67405762 -83.05275299 22.47311523 -82.23677063 23.29638672 C-79.70838574 25.85277343 -77.19792835 28.42598917 -74.6875 31 C-72.97706366 32.73551131 -71.26548849 34.46990103 -69.55273438 36.203125 C-65.35518517 40.45582077 -61.17222783 44.72246715 -57 49 C-56.98358459 48.17922974 -56.96716919 47.35845947 -56.95025635 46.51281738 C-56.905003 44.25015018 -56.85909943 41.98749591 -56.81262207 39.72485352 C-56.76655507 37.35253777 -56.73131467 34.98000559 -56.70214844 32.60742188 C-56.46433222 24.56172387 -55.51847545 18.68541041 -49.859375 12.7578125 C-49.16328125 12.21898438 -48.4671875 11.68015625 -47.75 11.125 C-46.46990544 10.12054624 -45.21060834 9.08719681 -44 8 C-44 7.34 -44 6.68 -44 6 C-43.34 6 -42.68 6 -42 6 C-41.67 5.34 -41.34 4.68 -41 4 C-38.66611415 3.22203805 -36.38316716 2.59579179 -34 2 C-33.0821875 1.74992187 -32.164375 1.49984375 -31.21875 1.2421875 C-21.23864569 -1.40717009 -9.8088133 -4.21329332 0 0 Z " fill="#8BD84F" transform="translate(140,53)"/>
<path d="M0 0 C3.32325857 0.32779176 4.27606295 1.19934806 6.64936829 3.50265503 C7.38975845 4.21114594 8.13014862 4.91963684 8.89297485 5.64959717 C10.06825996 6.8165361 10.06825996 6.8165361 11.26728821 8.00704956 C12.08146713 8.80458649 12.89564606 9.60212341 13.73449707 10.42382812 C15.45310211 12.11711239 17.1649695 13.81725815 18.87055969 15.52365112 C21.47980415 18.12198433 24.12628145 20.67774783 26.77705383 23.23361206 C28.44291106 24.88479403 30.10640336 26.53836608 31.76728821 28.19454956 C32.56093277 28.95226654 33.35457733 29.70998352 34.17227173 30.49066162 C38.11576847 34.51787481 40.16102724 37.0561217 40.18013 42.83175659 C40.05504486 44.31336633 39.90433801 45.79421009 39.68525696 47.26486206 C36.06339741 46.68310428 34.35046809 45.32117353 31.75874329 42.7741394 C31.00148453 42.0360202 30.24422577 41.297901 29.46401978 40.53741455 C28.25288765 39.33129013 28.25288765 39.33129013 27.01728821 38.10079956 C25.76416084 36.86264999 25.76416084 36.86264999 24.48571777 35.5994873 C22.72087882 33.84984052 20.96009766 32.09609265 19.20307922 30.33859253 C16.51328149 27.65534876 13.80045573 24.99698662 11.08564758 22.33908081 C9.37389232 20.63612885 7.66355763 18.93174754 5.95478821 17.22579956 C5.1412941 16.433862 4.32779999 15.64192444 3.48965454 14.82598877 C-2.69153466 8.56850709 -2.69153466 8.56850709 -3.39408875 4.26730347 C-3.29126889 0.37660001 -3.29126889 0.37660001 0 0 Z " fill="#8DDC51" transform="translate(44.31474304199219,65.73513793945313)"/>
<path d="M0 0 C2.26635742 0.43115234 2.26635742 0.43115234 4.26635742 2.43115234 C4.25383395 6.82159371 2.09369561 9.08127958 -0.88656616 12.11421204 C-1.46258575 12.67899765 -2.03860535 13.24378326 -2.63208008 13.82568359 C-3.22284332 14.41790207 -3.81360657 15.01012054 -4.42227173 15.62028503 C-5.67000739 16.86636418 -6.9226867 18.10751015 -8.17993164 19.34399414 C-10.10714164 21.24217402 -12.01492554 23.15840041 -13.92114258 25.07763672 C-15.13617762 26.28643656 -16.35228749 27.49415719 -17.56958008 28.70068359 C-18.14155121 29.27559036 -18.71352234 29.85049713 -19.30282593 30.44282532 C-23.38761849 34.43115234 -23.38761849 34.43115234 -26.73364258 34.43115234 C-27.5735003 30.86712153 -27.59410014 28.00109899 -26.73364258 24.43115234 C-23.81970165 20.30060993 -20.42147944 16.88623892 -16.75439453 13.42285156 C-15.0410556 11.801338 -13.37172791 10.14272914 -11.7043457 8.47412109 C-10.62920826 7.42354753 -9.55180793 6.3752837 -8.47192383 5.32958984 C-7.97275955 4.83598969 -7.47359528 4.34238953 -6.95930481 3.83383179 C-4.65727205 1.68474638 -3.14764973 0.49644989 0 0 Z " fill="#5EC377" transform="translate(110.733642578125,78.56884765625)"/>
<path d="M0 0 C0.99 0.33 1.98 0.66 3 1 C3 3.97 3 6.94 3 10 C2.34 10 1.68 10 1 10 C0.67 6.7 0.34 3.4 0 0 Z " fill="#7B9E20" transform="translate(0,53)"/>
<path d="M0 0 C0.125 5.75 0.125 5.75 -1 8 C-1.66 8 -2.32 8 -3 8 C-3 5.69 -3 3.38 -3 1 C-1 0 -1 0 0 0 Z " fill="#527724" transform="translate(140,74)"/>
<path d="M0 0 C0 3 0 3 0 3 Z " fill="#000000" transform="translate(124,104)"/>
<path d="" fill="#000000" transform="translate(0,0)"/>
<path d="" fill="#000000" transform="translate(0,0)"/>
<path d="" fill="#000000" transform="translate(0,0)"/>
<path d="M0 0 C2 1 2 1 2 1 Z " fill="#000000" transform="translate(64,40)"/>
<path d="" fill="#000000" transform="translate(0,0)"/>
<path d="" fill="#000000" transform="translate(0,0)"/>
<path d="" fill="#000000" transform="translate(0,0)"/>
<path d="" fill="#000000" transform="translate(0,0)"/>
<path d="" fill="#000000" transform="translate(0,0)"/>
<path d="" fill="#000000" transform="translate(0,0)"/>
<path d="" fill="#000000" transform="translate(0,0)"/>
<path d="" fill="#000000" transform="translate(0,0)"/>
<path d="" fill="#000000" transform="translate(0,0)"/>
<path d="" fill="#000000" transform="translate(0,0)"/>
<path d="" fill="#000000" transform="translate(0,0)"/>
<path d="" fill="#000000" transform="translate(0,0)"/>
<path d="" fill="#000000" transform="translate(0,0)"/>
<path d="" fill="#000000" transform="translate(0,0)"/>
<path d="" fill="#000000" transform="translate(0,0)"/>
<path d="" fill="#000000" transform="translate(0,0)"/>
<path d="" fill="#000000" transform="translate(0,0)"/>
<path d="" fill="#000000" transform="translate(0,0)"/>
<path d="" fill="#000000" transform="translate(0,0)"/>
<path d="" fill="#000000" transform="translate(0,0)"/>
<path d="" fill="#000000" transform="translate(0,0)"/>
<path d="" fill="#000000" transform="translate(0,0)"/>
<path d="" fill="#000000" transform="translate(0,0)"/>
<path d="" fill="#000000" transform="translate(0,0)"/>
<path d="" fill="#000000" transform="translate(0,0)"/>
<path d="" fill="#000000" transform="translate(0,0)"/>
<path d="" fill="#000000" transform="translate(0,0)"/>
<path d="" fill="#000000" transform="translate(0,0)"/>
<path d="" fill="#000000" transform="translate(0,0)"/>
<path d="" fill="#000000" transform="translate(0,0)"/>
<path d="" fill="#000000" transform="translate(0,0)"/>
<path d="" fill="#000000" transform="translate(0,0)"/>
<path d="" fill="#000000" transform="translate(0,0)"/>
<path d="" fill="#000000" transform="translate(0,0)"/>
<path d="" fill="#000000" transform="translate(0,0)"/>
<path d="" fill="#000000" transform="translate(0,0)"/>
<path d="" fill="#000000" transform="translate(0,0)"/>
<path d="" fill="#000000" transform="translate(0,0)"/>
<path d="" fill="#000000" transform="translate(0,0)"/>
<path d="" fill="#000000" transform="translate(0,0)"/>
<path d="" fill="#000000" transform="translate(0,0)"/>
<path d="" fill="#000000" transform="translate(0,0)"/>
<path d="" fill="#000000" transform="translate(0,0)"/>
<path d="" fill="#000000" transform="translate(0,0)"/>
<path d="" fill="#000000" transform="translate(0,0)"/>
<path d="" fill="#000000" transform="translate(0,0)"/>
<path d="" fill="#000000" transform="translate(0,0)"/>
<path d="" fill="#000000" transform="translate(0,0)"/>
<path d="" fill="#000000" transform="translate(0,0)"/>
<path d="" fill="#000000" transform="translate(0,0)"/>
<path d="" fill="#000000" transform="translate(0,0)"/>
<path d="" fill="#000000" transform="translate(0,0)"/>
<path d="" fill="#000000" transform="translate(0,0)"/>
<path d="" fill="#000000" transform="translate(0,0)"/>
<path d="" fill="#000000" transform="translate(0,0)"/>
<path d="" fill="#000000" transform="translate(0,0)"/>
</svg>
